<?xml version="1.0" encoding="utf-8"?>
<!-- Generator: Adobe Illustrator 18.0.0, SVG Export Plug-In . SVG Version: 6.00 Build 0)  -->
<!DOCTYPE svg PUBLIC "-//W3C//DTD SVG 1.1//EN" "http://www.w3.org/Graphics/SVG/1.1/DTD/svg11.dtd">
<svg version="1.1" xmlns="http://www.w3.org/2000/svg" xmlns:xlink="http://www.w3.org/1999/xlink" x="0px" y="0px"
	 viewBox="0 0 318 223" enable-background="new 0 0 318 223" xml:space="preserve">
<g id="Calque_1">
	<g>
		<g>
			<path fill="#FFFFFF" d="M385.5,410.7h-6.5V371l3.8-28.5c0.2-1.6,0.7-3,1.5-4.2c0.8-1.2,1.8-2.3,3-3.2c1.2-0.9,2.5-1.6,4-2.2
				c1.5-0.6,2.9-1,4.4-1.5c3.6-0.9,7.2-1.7,10.8-2.3c3.6-0.6,7.3-0.9,11.1-0.9c1.1,0,2.3,0,3.5,0.1c1.2,0.1,2.3,0.2,3.3,0.3
				c0.3,0,0.9,0.1,1.8,0.2c0.9,0.1,1.8,0.3,2.8,0.4c1,0.2,1.9,0.3,2.8,0.5c0.9,0.2,1.5,0.3,1.9,0.3c0.1,0,0.5,0.1,1,0.2
				c0.5,0.1,1.1,0.3,1.8,0.4c0.6,0.2,1.3,0.3,1.9,0.4c0.6,0.1,1.1,0.2,1.5,0.3c1.1,0.3,2.3,0.8,3.7,1.3c1.3,0.5,2.6,1.2,3.8,2
				c1.2,0.8,2.2,1.7,3.1,2.8c0.9,1.1,1.4,2.3,1.6,3.7l3.7,28.1v41.2h-6.2v7c0,1.5-0.6,2.6-1.7,3.5c-1.2,0.9-2.4,1.4-3.7,1.4
				c-1.1,0-2-0.2-2.9-0.5c-0.9-0.4-1.6-1.1-2.2-2.1c-0.1-0.1-0.2-0.5-0.5-1.1v-8.1h-42.2v7.8c0,0.1-0.1,0.4-0.4,0.9
				c-0.3,0.5-0.5,0.9-0.7,1.1c-0.5,0.8-1.1,1.3-1.9,1.6c-0.8,0.3-1.7,0.4-2.6,0.4c-2.5,0-4.3-1.2-5.2-3.6c-0.1-0.1-0.1-0.3-0.1-0.6
				c0-0.2-0.1-0.4-0.1-0.4V410.7z M385.7,370.9c0,0.9,0.2,1.6,0.8,2.2c0.5,0.6,1.2,0.9,2.1,0.9h57.9c0.9,0,1.6-0.3,2.1-0.9
				c0.5-0.6,0.7-1.4,0.7-2.2v-0.7l-3.1-21.5c-0.1-0.8-0.5-1.6-1-2.4c-0.6-0.8-1.4-1.2-2.3-1.2h-50.9c-0.9,0-1.7,0.4-2.2,1.1
				c-0.6,0.8-0.9,1.5-1,2.3l-3.1,21.6V370.9z M385.7,392.9c0,1.5,0.5,2.7,1.5,3.7c1,1,2.3,1.5,3.6,1.5c1.5,0,2.7-0.5,3.8-1.4
				c1.1-1,1.6-2.2,1.6-3.7c0-1.6-0.5-2.9-1.6-3.8c-1.1-0.9-2.4-1.4-3.8-1.4c-1.4,0-2.6,0.5-3.6,1.4
				C386.2,390.2,385.7,391.4,385.7,392.9z M399.4,337.7c0,0.6,0.2,1.2,0.5,1.7c0.4,0.5,0.9,0.8,1.5,0.8h32.3c0.5,0,1-0.3,1.4-0.8
				c0.4-0.5,0.6-1.1,0.6-1.6c0-0.3-0.1-0.8-0.4-1.3c-0.2-0.5-0.6-0.8-1-0.8h-33.6c-0.5,0-0.8,0.2-1,0.7
				C399.5,337,399.4,337.4,399.4,337.7z M438.8,392.9c0,1.5,0.5,2.8,1.5,3.7c1,1,2.3,1.4,3.7,1.4c1.5,0,2.7-0.5,3.8-1.4
				c1.1-1,1.6-2.2,1.6-3.7c0-1.5-0.5-2.8-1.5-3.7c-1-1-2.3-1.4-3.8-1.4c-1.5,0-2.7,0.5-3.7,1.4C439.3,390.2,438.8,391.4,438.8,392.9
				z"/>
		</g>
		<g>
			<path fill="#FFFFFF" d="M307.7,410.6h-5.4v-20.9c0-1,0.4-2,1.1-3c0.8-1,1.5-1.8,2.3-2.2c0.2-0.1,0.4-0.1,0.7-0.2
				c0.3-0.1,0.6-0.2,0.9-0.4c0.3-0.1,0.6-0.3,0.8-0.4c0.2-0.1,0.4-0.3,0.4-0.6l5.7-14.3c0.5-1.3,1.4-2.5,2.5-3.6
				c1.2-1.1,2.5-1.7,4-1.7h33.9c1.3,0,2.6,0.5,3.8,1.6c1.2,1,2,2.2,2.5,3.3l5.6,14.3c0.2,0.7,0.6,1.1,1.2,1.3
				c0.6,0.2,1.2,0.4,1.7,0.7c1.1,0.6,1.9,1.6,2.6,2.8c0.7,1.2,1.1,2.4,1.1,3.6v19.8h-5.3l-0.4,0.4v7.3c0,0.6-0.2,1.2-0.5,1.7
				c-0.4,0.5-0.8,1-1.3,1.4c-0.5,0.4-1.1,0.7-1.7,0.9c-0.6,0.2-1.3,0.3-1.8,0.3c-1.2,0-2.4-0.5-3.6-1.4c-1.2-0.9-1.7-2-1.7-3.4v-7.1
				h-38.1c0,1.1,0,2.3,0,3.7c0,1.4-0.1,2.7-0.4,3.8c-0.3,1.2-0.9,2.2-1.7,3c-0.8,0.8-2,1.2-3.5,1.2c-1.2,0-2.2-0.3-3-1
				c-0.8-0.7-1.5-1.5-2.1-2.6c-0.1-0.1-0.1-0.4-0.2-0.7V410.6z M308.4,394.2c0,1.4,0.4,2.6,1.3,3.6c0.9,1,2,1.5,3.5,1.5
				c1.3,0,2.5-0.5,3.5-1.5c1-1,1.4-2.2,1.4-3.6c0-1.4-0.5-2.6-1.4-3.6c-1-1-2.1-1.5-3.5-1.5c-1.5,0-2.7,0.5-3.5,1.6
				C308.8,391.6,308.4,392.8,308.4,394.2z M314.5,383.3h46.2l-4.5-12.2c-0.2-0.5-0.5-1-1-1.6c-0.5-0.6-1.1-0.9-1.8-0.9h-31.7
				c-0.6,0-1.1,0.2-1.6,0.7c-0.5,0.5-0.8,1-0.9,1.4L314.5,383.3z M357,394.2c0,1.4,0.5,2.6,1.4,3.6c1,1,2.1,1.5,3.5,1.5
				s2.6-0.5,3.5-1.6c0.9-1,1.4-2.2,1.4-3.6c0-1.3-0.5-2.5-1.4-3.6c-0.9-1-2.1-1.6-3.5-1.6s-2.6,0.5-3.5,1.5
				C357.5,391.5,357,392.8,357,394.2z"/>
		</g>
		<path fill="#FFFFFF" d="M523,350.2c-0.7-1.3-1.6-2.5-2.6-3.6c-1.1-1.1-2.2-2-3.5-2.7c-1.3-0.7-2.5-1.1-3.7-1.1H473
			c-1.2,0-2.5,0.4-3.7,1.1c-1.3,0.7-2.5,1.6-3.5,2.7c-1,1.1-1.9,2.3-2.6,3.6c-0.7,1.3-1.1,2.5-1.1,3.7V402c0,1.2,0.3,2.4,0.8,3.5
			c0.6,1.2,1.3,2.2,2.2,3.2c0.9,1,1.9,1.8,3,2.5c1,0.7,2.1,1.2,3.1,1.5v5.7c0,2.3,2.7,4.1,5.9,4.1c3.3,0,5.9-1.9,5.9-4.1v-5.3H503
			v5.3c0,2.3,2.7,4.1,5.9,4.1c3.3,0,5.9-1.9,5.9-4.1v-5.6c0.6-0.2,1.3-0.4,1.9-0.8c1.3-0.7,2.5-1.6,3.5-2.6c1.1-1.1,1.9-2.3,2.6-3.6
			c0.7-1.3,1-2.6,1-3.8V354C524,352.8,523.7,351.5,523,350.2z M476.3,397.5c-0.9,1-2.1,1.4-3.6,1.4c-1.5,0-2.8-0.5-3.7-1.4
			c-1-1-1.5-2.2-1.5-3.7c0-1.5,0.5-2.7,1.5-3.6c1-1,2.2-1.4,3.7-1.4c1.4,0,2.6,0.5,3.5,1.4c1,1,1.5,2.2,1.5,3.6
			C477.7,395.3,477.2,396.5,476.3,397.5z M491.3,371.4c0,0.9-0.4,1.9-1.1,2.8c-0.7,1-1.6,1.4-2.6,1.4h-17c-0.2,0-0.4-0.1-0.7-0.2
			c-0.7-0.3-1.4-0.7-2.1-1.4c-0.7-0.7-1-1.5-1-2.2v-12.6c0-0.9,0.5-1.8,1.4-2.6c0.9-0.8,1.8-1.3,2.7-1.3h16.3c1.1,0,2,0.5,2.8,1.4
			c0.8,0.9,1.2,1.9,1.2,3V371.4z M517.3,397.5c-0.9,1-2.2,1.4-3.7,1.4c-1.5,0-2.8-0.5-3.7-1.4c-0.9-1-1.4-2.2-1.4-3.7
			c0-1.5,0.5-2.8,1.4-3.7c1-0.9,2.2-1.4,3.6-1.4c1.5,0,2.8,0.5,3.7,1.4c0.9,1,1.4,2.2,1.4,3.6C518.7,395.3,518.2,396.5,517.3,397.5z
			 M518.9,371.6c0,0.9-0.4,1.8-1.2,2.6c-0.8,0.8-1.7,1.2-2.6,1.2h-17c-0.6-0.2-1-0.3-1.1-0.3c-0.7-0.3-1.3-0.8-1.8-1.5
			c-0.5-0.8-0.8-1.5-0.8-2.2v-11.9c0-1.1,0.4-2,1.2-2.9c0.8-0.9,1.8-1.4,2.8-1.4h16.4c1,0,1.9,0.4,2.8,1.3c0.9,0.9,1.3,1.8,1.3,2.7
			V371.6z"/>
	</g>
</g>
<g id="Calque_2">
	<g>
		<path fill="#FFFFFF" d="M-193.1,105.7l-8.7,8.7l8.7,8.7l-11.6,11.6l41.6,41.6c5.8,5.8,14.6,5.8,20.3,0c5.8-5.8,5.8-14.5,0-20.3
			L-193.1,105.7z M-155.4,171.6c-3.9,0-7.8-2.9-7.8-7.8c0-3.9,2.9-7.8,7.8-7.8c4.9,0,7.8,2.9,7.8,7.8
			C-147.6,168.7-150.5,171.6-155.4,171.6L-155.4,171.6z M-155.4,171.6"/>
		<g>
			<path fill="#FFFFFF" d="M-258.1,103.7l8.8-5.8l14.5-16.5l8.7,8.7l8.7-8.7l-0.9-1c1.9-4.9,2.9-9.7,2.9-15.5
				c0-21.3-17.4-38.7-38.7-38.7c-5.8,0-10.6,0.9-15.5,2.9l28,28.1l-20.3,20.3l-28.1-28c-1.9,4.8-2.9,9.7-2.9,15.5
				C-292.9,85.3-277.4,100.8-258.1,103.7L-258.1,103.7z M-258.1,103.7"/>
			<path fill="#FFFFFF" d="M-215.4,130.9l8.8-7.8l-8.8-8.7l55.3-55.3l11.6-3.9l10.6-21.3l-6.8-6.8l-22.3,9.7l-4.8,11.6l-54.3,55.2
				l-8.7-8.7l-7.8,8.7c0,0,7.8,5.8-1,14.6c-4.8,4.8-12.6-1-27.1,13.5l-20.3,20.3c0,0-5.8,9.7,5.8,21.3c11.6,11.6,21.3,5.8,21.3,5.8
				l20.3-20.3c13.6-13.6,8.8-22.3,12.6-26.2C-222.2,124.1-215.4,130.9-215.4,130.9L-215.4,130.9z M-245.4,127l6.8,6.8l-36.8,36.9
				l-6.8-6.8L-245.4,127z M-245.4,127"/>
		</g>
	</g>
	<g>
		<path fill="#FFFFFF" d="M-323,201.4l-13.2,18.5v5.6h36.1v-24.1H-323z M-304.9,220.6h-25.9l10.3-14.4h15.6V220.6z M-304.9,220.6"/>
		<path fill="#FFFFFF" d="M-297.7,201.4v24.1h36.1v-5.6l-13.2-18.5H-297.7z M-292.9,220.6v-14.4h15.6l10.3,14.4H-292.9z
			 M-292.9,220.6"/>
		<rect x="-307.4" y="227.8" fill="#FFFFFF" width="7.2" height="4.8"/>
		<path fill="#FFFFFF" d="M-343.4,266.3c4,0,7.2-3.2,7.2-7.2c0-4-3.2-7.2-7.2-7.2s-7.2,3.2-7.2,7.2
			C-350.7,263.1-347.4,266.3-343.4,266.3L-343.4,266.3z M-343.4,256.7c1.3,0,2.4,1.1,2.4,2.4c0,1.3-1.1,2.4-2.4,2.4
			c-1.3,0-2.4-1.1-2.4-2.4C-345.9,257.8-344.8,256.7-343.4,256.7L-343.4,256.7z M-343.4,256.7"/>
		<path fill="#FFFFFF" d="M-235.2,261.5c6,0,7.2-3.9,7.2-7.2v-21.7c0-6-4.9-11.3-9-12l-9.6-2.4c-2.4-0.6-3.8-1.6-5.9-3.9l-12.1-16.9
			c-3.1-4-6.7-5.7-11.5-5.7h-45.7c-4.9,0-8.4,1.8-11.6,5.8l-11.9,16.7c-2.2,2.5-3.8,3.6-5.8,4l-14.5,2.4
			c-6.9,1.4-11.5,7.2-11.5,14.4v16.8c0,5.2,4.4,9.6,9.6,9.6h7.4c0.5,3.7,2.3,7.1,4.9,9.6h-21.9v19.2h42.9l23.5,7.2l-23.8,7.3
			l0.1,4.6l22.6,6.1l-22.3,6h-43v19.2H-228v-19.2h-43l-22.3-6l22.6-6.1l0.1-4.6l-23.8-7.3l23.5-7.2h42.9v-19.2h-21.9
			c2.6-2.5,4.3-5.9,4.9-9.6H-235.2z M-355.5,259.1c0-6.6,5.4-12,12-12c6.6,0,12,5.4,12,12c0,6.6-5.4,12-12,12
			C-350.1,271.1-355.5,265.7-355.5,259.1L-355.5,259.1z M-326.8,261.5h48.5c0.5,3.7,2.3,7.1,4.9,9.6h-58.3
			C-329.1,268.6-327.3,265.3-326.8,261.5L-326.8,261.5z M-232.8,326.5v9.6h-139.6v-9.6H-232.8z M-289.5,321.7h-26.2l13.1-3.5
			L-289.5,321.7z M-279.9,307.1l-22.6,6.1l-22.6-6.1l22.6-7L-279.9,307.1z M-302.5,295.1l-15.3-4.7h30.6L-302.5,295.1z
			 M-232.8,275.9v9.6h-139.6v-9.6H-232.8z M-261.6,271.1c-6.6,0-12-5.4-12-12c0-6.6,5.4-12,12-12c6.6,0,12,5.4,12,12
			C-249.6,265.7-255,271.1-261.6,271.1L-261.6,271.1z M-261.6,242.3c-8.5,0-15.5,6.3-16.6,14.4h-48.5c-1.2-8.1-8.2-14.4-16.7-14.4
			c-8.5,0-15.5,6.3-16.6,14.4h-7.4c-2.6,0-4.8-2.2-4.8-4.8v-12h4.8v4.8h4.8v-4.8c0-3.1-1.7-4.8-4.8-4.8h-4.8c0-6,4-8.9,7.6-9.7
			l14.5-2.4c3.1-0.6,5.7-2.3,8.7-5.8l12-16.8c2.2-2.8,4.3-3.9,7.7-3.9h45.7c3.4,0,5.5,1.1,7.7,3.8l12.2,17c2.4,2.7,4.6,4.6,8.5,5.6
			l9.8,2.4c2.1,0.4,5.2,3.6,5.2,7.3v21.7c0,2.1-0.3,2.4-2.4,2.4h-9.8C-246.2,248.5-253.2,242.3-261.6,242.3L-261.6,242.3z
			 M-261.6,242.3"/>
		<path fill="#FFFFFF" d="M-261.6,251.9c-4,0-7.2,3.2-7.2,7.2c0,4,3.2,7.2,7.2,7.2c4,0,7.2-3.2,7.2-7.2
			C-254.4,255.1-257.7,251.9-261.6,251.9L-261.6,251.9z M-261.6,261.5c-1.3,0-2.4-1.1-2.4-2.4c0-1.3,1.1-2.4,2.4-2.4
			c1.3,0,2.4,1.1,2.4,2.4C-259.2,260.4-260.3,261.5-261.6,261.5L-261.6,261.5z M-261.6,261.5"/>
		<rect x="-357.9" y="295.2" fill="#FFFFFF" width="4.8" height="12"/>
		<rect x="-367.5" y="300" fill="#FFFFFF" width="4.8" height="16.8"/>
		<rect x="-244.8" y="295.2" fill="#FFFFFF" width="4.8" height="9.6"/>
		<rect x="-254.4" y="295.2" fill="#FFFFFF" width="4.8" height="21.7"/>
		<rect x="-288.1" y="247.1" fill="#FFFFFF" width="4.8" height="4.8"/>
		<rect x="-297.7" y="247.1" fill="#FFFFFF" width="4.8" height="4.8"/>
		<rect x="-242.4" y="247.1" fill="#FFFFFF" width="4.8" height="4.8"/>
		<rect x="-367.5" y="328.9" fill="#FFFFFF" width="4.8" height="4.8"/>
		<rect x="-357.9" y="328.9" fill="#FFFFFF" width="4.8" height="4.8"/>
	</g>
	<g>
		<path fill="#FFFFFF" d="M-112.3,342.9c-1.4,0-2.5,1.1-2.5,2.5c0,1.4,1.1,2.5,2.5,2.5h13.6c1.4,0,2.5-1.1,2.5-2.5
			c0-1.4-1.1-2.5-2.5-2.5H-112.3z"/>
		<path fill="#FFFFFF" d="M-138.6,371c0,1.4-1.1,2.5-2.5,2.5h-7.6c-1.4,0-2.5-1.1-2.5-2.5s1.1-2.5,2.5-2.5h7.6
			C-139.8,368.4-138.6,369.6-138.6,371L-138.6,371z M-148.8,363.3c-1.4,0-2.5-1.1-2.5-2.5c0-1.4,1.1-2.5,2.5-2.5h12.7
			c1.4,0,2.5,1.1,2.5,2.5c0,1.4-1.1,2.5-2.5,2.5H-148.8z M-91,345.5c0,4.2-3.4,7.6-7.6,7.6h-13.6c-4.2,0-7.6-3.4-7.6-7.6
			c0-4.2,3.4-7.6,7.6-7.6h13.6C-94.5,337.8-91,341.3-91,345.5L-91,345.5z M-46.9,388.8V399c0,1.4-1.1,2.5-2.5,2.5H-52H-159h-2.5
			c-1.4,0-2.5-1.1-2.5-2.5v-10.2c0-1.4,1.1-2.5,2.5-2.5h7.6h96.9h7.6C-48,386.3-46.9,387.4-46.9,388.8L-46.9,388.8z M-98.7,427.1
			h-13.6c-4.2,0-7.6-3.4-7.6-7.6s3.4-7.6,7.6-7.6h13.6c4.2,0,7.6,3.4,7.6,7.6S-94.5,427.1-98.7,427.1L-98.7,427.1z M-136.1,437.3
			h-12.7c-1.4,0-2.5-1.1-2.5-2.5s1.1-2.5,2.5-2.5h12.7c1.4,0,2.5,1.1,2.5,2.5S-134.7,437.3-136.1,437.3L-136.1,437.3z M-141.2,447.5
			h-7.6c-1.4,0-2.5-1.1-2.5-2.5s1.1-2.5,2.5-2.5h7.6c1.4,0,2.5,1.1,2.5,2.5S-139.8,447.5-141.2,447.5L-141.2,447.5z M-164.1,325.1
			v-10.2c0-1.4,1.1-2.5,2.5-2.5h112.2c1.4,0,2.5,1.1,2.5,2.5v10.2c0,1.4-1.1,2.5-2.5,2.5H-52H-159h-2.5
			C-163,327.6-164.1,326.5-164.1,325.1L-164.1,325.1z M-49.4,332.7c4.2,0,7.6-3.4,7.6-7.6v-10.2c0-4.2-3.4-7.6-7.6-7.6h-112.2
			c-4.2,0-7.6,3.4-7.6,7.6v10.2c0,4.2,3.4,7.6,7.6,7.6v45.9c0,0.9,0.2,1.7,0.5,2.5h-0.5c-4.2,0-7.6,3.4-7.6,7.6V399
			c0,4.2,3.4,7.6,7.6,7.6v45.9c0,4.2,3.4,7.6,7.6,7.6h96.9c4.2,0,7.6-3.4,7.6-7.6v-45.9c4.2,0,7.6-3.4,7.6-7.6v-10.2
			c0-4.2-3.4-7.6-7.6-7.6h-0.5c0.3-0.8,0.5-1.7,0.5-2.5V332.7z"/>
		<path fill="#FFFFFF" d="M-98.7,416.9h-13.6c-1.4,0-2.5,1.1-2.5,2.5c0,1.4,1.1,2.5,2.5,2.5h13.6c1.4,0,2.5-1.1,2.5-2.5
			C-96.1,418-97.3,416.9-98.7,416.9"/>
	</g>
	<g>
		<g>
			<path fill="#FFFFFF" d="M86.7,83.7c0.5,2.4,1.3,4,2.3,5c2.2,15.6,16.3,28.9,27.5,28.4c14.3-0.7,24.5-16.2,26.8-28.4
				c0.9-1,1.9-3.1,2.4-5.5c0.6-2.8,1.3-7-0.4-9.3c-0.1-0.1-0.7-0.7-0.9-0.8c1.6-5.8,5.2-16.2-3.7-25.5c-4.8-5.1-11.4-7.6-17.4-9.6
				c-17.7-5.9-30.2,2.4-36,16.2c-0.4,1-3.1,7.2,0.2,18.9c-0.3,0.2-0.6,0.5-0.9,0.8C85,76.1,86.1,80.9,86.7,83.7L86.7,83.7z
				 M86.7,83.7"/>
			<path fill="#FFFFFF" d="M178.3,169.7c-0.5-10.8-1.1-27.8-10.5-41.8c0,0-2.7-3.6-9-6.1c0,0-13.8-4.2-20.2-8.8l-2.9,2l0.3,18.9
				l-17.4,46.5c-0.4,1-1.4,1.7-2.5,1.7c-1.1,0-2.1-0.7-2.4-1.7l-17.4-46.5c0,0,0.3-18.8,0.3-18.9c0,0.1-2.9-2-2.9-2
				c-6.3,4.6-20.2,8.8-20.2,8.8c-6.4,2.4-9,6.1-9,6.1c-9.4,13.9-10,31-10.5,41.8c-0.3,7.4,1.2,10.2,3.2,11
				c24.3,9.8,93.6,9.8,117.9,0C177,179.9,178.6,177.1,178.3,169.7L178.3,169.7z M178.3,169.7"/>
		</g>
		<path fill="#FFFFFF" d="M116.8,123.1H116c-2.6,0-5.1-0.5-7.6-1.3l6.9,10.6l-6.2,6l6.4,38.7c0.1,0.3,0.3,0.6,0.7,0.6
			c0.3,0,0.6-0.2,0.7-0.6l6.4-38.7l-6.2-6l6.8-10.4C121.6,122.5,119.2,123,116.8,123.1L116.8,123.1z M116.8,123.1"/>
	</g>
</g>
</svg>
