<?xml version="1.0" encoding="utf-8"?>
<!-- Generator: Adobe Illustrator 18.0.0, SVG Export Plug-In . SVG Version: 6.00 Build 0)  -->
<!DOCTYPE svg PUBLIC "-//W3C//DTD SVG 1.1//EN" "http://www.w3.org/Graphics/SVG/1.1/DTD/svg11.dtd">
<svg version="1.1" xmlns="http://www.w3.org/2000/svg" xmlns:xlink="http://www.w3.org/1999/xlink" x="0px" y="0px"
	 viewBox="0 0 318 223" enable-background="new 0 0 318 223" xml:space="preserve">
<g id="Calque_1">
	<g>
		<g>
			<path fill="#FFFFFF" d="M385.5,410.7h-6.5V371l3.8-28.5c0.2-1.6,0.7-3,1.5-4.2c0.8-1.2,1.8-2.3,3-3.2c1.2-0.9,2.5-1.6,4-2.2
				c1.5-0.6,2.9-1,4.4-1.5c3.6-0.9,7.2-1.7,10.8-2.3c3.6-0.6,7.3-0.9,11.1-0.9c1.1,0,2.3,0,3.5,0.1c1.2,0.1,2.3,0.2,3.3,0.3
				c0.3,0,0.9,0.1,1.8,0.2c0.9,0.1,1.8,0.3,2.8,0.4c1,0.2,1.9,0.3,2.8,0.5c0.9,0.2,1.5,0.3,1.9,0.3c0.1,0,0.5,0.1,1,0.2
				c0.5,0.1,1.1,0.3,1.8,0.4c0.6,0.2,1.3,0.3,1.9,0.4c0.6,0.1,1.1,0.2,1.5,0.3c1.1,0.3,2.3,0.8,3.7,1.3c1.3,0.5,2.6,1.2,3.8,2
				c1.2,0.8,2.2,1.7,3.1,2.8c0.9,1.1,1.4,2.3,1.6,3.7l3.7,28.1v41.2h-6.2v7c0,1.5-0.6,2.6-1.7,3.5c-1.2,0.9-2.4,1.4-3.7,1.4
				c-1.1,0-2-0.2-2.9-0.5c-0.9-0.4-1.6-1.1-2.2-2.1c-0.1-0.1-0.2-0.5-0.5-1.1v-8.1h-42.2v7.8c0,0.1-0.1,0.4-0.4,0.9
				c-0.3,0.5-0.5,0.9-0.7,1.1c-0.5,0.8-1.1,1.3-1.9,1.6c-0.8,0.3-1.7,0.4-2.6,0.4c-2.5,0-4.3-1.2-5.2-3.6c-0.1-0.1-0.1-0.3-0.1-0.6
				c0-0.2-0.1-0.4-0.1-0.4V410.7z M385.7,370.9c0,0.9,0.2,1.6,0.8,2.2c0.5,0.6,1.2,0.9,2.1,0.9h57.9c0.9,0,1.6-0.3,2.1-0.9
				c0.5-0.6,0.7-1.4,0.7-2.2v-0.7l-3.1-21.5c-0.1-0.8-0.5-1.6-1-2.4c-0.6-0.8-1.4-1.2-2.3-1.2h-50.9c-0.9,0-1.7,0.4-2.2,1.1
				c-0.6,0.8-0.9,1.5-1,2.3l-3.1,21.6V370.9z M385.7,392.9c0,1.5,0.5,2.7,1.5,3.7c1,1,2.3,1.5,3.6,1.5c1.5,0,2.7-0.5,3.8-1.4
				c1.1-1,1.6-2.2,1.6-3.7c0-1.6-0.5-2.9-1.6-3.8c-1.1-0.9-2.4-1.4-3.8-1.4c-1.4,0-2.6,0.5-3.6,1.4
				C386.2,390.2,385.7,391.4,385.7,392.9z M399.4,337.7c0,0.6,0.2,1.2,0.5,1.7c0.4,0.5,0.9,0.8,1.5,0.8h32.3c0.5,0,1-0.3,1.4-0.8
				c0.4-0.5,0.6-1.1,0.6-1.6c0-0.3-0.1-0.8-0.4-1.3c-0.2-0.5-0.6-0.8-1-0.8h-33.6c-0.5,0-0.8,0.2-1,0.7
				C399.5,337,399.4,337.4,399.4,337.7z M438.8,392.9c0,1.5,0.5,2.8,1.5,3.7c1,1,2.3,1.4,3.7,1.4c1.5,0,2.7-0.5,3.8-1.4
				c1.1-1,1.6-2.2,1.6-3.7c0-1.5-0.5-2.8-1.5-3.7c-1-1-2.3-1.4-3.8-1.4c-1.5,0-2.7,0.5-3.7,1.4C439.3,390.2,438.8,391.4,438.8,392.9
				z"/>
		</g>
		<g>
			<path fill="#FFFFFF" d="M307.7,410.6h-5.4v-20.9c0-1,0.4-2,1.1-3c0.8-1,1.5-1.8,2.3-2.2c0.2-0.1,0.4-0.1,0.7-0.2
				c0.3-0.1,0.6-0.2,0.9-0.4c0.3-0.1,0.6-0.3,0.8-0.4c0.2-0.1,0.4-0.3,0.4-0.6l5.7-14.3c0.5-1.3,1.4-2.5,2.5-3.6
				c1.2-1.1,2.5-1.7,4-1.7h33.9c1.3,0,2.6,0.5,3.8,1.6c1.2,1,2,2.2,2.5,3.3l5.6,14.3c0.2,0.7,0.6,1.1,1.2,1.3
				c0.6,0.2,1.2,0.4,1.7,0.7c1.1,0.6,1.9,1.6,2.6,2.8c0.7,1.2,1.1,2.4,1.1,3.6v19.8h-5.3l-0.4,0.4v7.3c0,0.6-0.2,1.2-0.5,1.7
				c-0.4,0.5-0.8,1-1.3,1.4c-0.5,0.4-1.1,0.7-1.7,0.9c-0.6,0.2-1.3,0.3-1.8,0.3c-1.2,0-2.4-0.5-3.6-1.4c-1.2-0.9-1.7-2-1.7-3.4v-7.1
				h-38.1c0,1.1,0,2.3,0,3.7c0,1.4-0.1,2.7-0.4,3.8c-0.3,1.2-0.9,2.2-1.7,3c-0.8,0.8-2,1.2-3.5,1.2c-1.2,0-2.2-0.3-3-1
				c-0.8-0.7-1.5-1.5-2.1-2.6c-0.1-0.1-0.1-0.4-0.2-0.7V410.6z M308.4,394.2c0,1.4,0.4,2.6,1.3,3.6c0.9,1,2,1.5,3.5,1.5
				c1.3,0,2.5-0.5,3.5-1.5c1-1,1.4-2.2,1.4-3.6c0-1.4-0.5-2.6-1.4-3.6c-1-1-2.1-1.5-3.5-1.5c-1.5,0-2.7,0.5-3.5,1.6
				C308.8,391.6,308.4,392.8,308.4,394.2z M314.5,383.3h46.2l-4.5-12.2c-0.2-0.5-0.5-1-1-1.6c-0.5-0.6-1.1-0.9-1.8-0.9h-31.7
				c-0.6,0-1.1,0.2-1.6,0.7c-0.5,0.5-0.8,1-0.9,1.4L314.5,383.3z M357,394.2c0,1.4,0.5,2.6,1.4,3.6c1,1,2.1,1.5,3.5,1.5
				s2.6-0.5,3.5-1.6c0.9-1,1.4-2.2,1.4-3.6c0-1.3-0.5-2.5-1.4-3.6c-0.9-1-2.1-1.6-3.5-1.6s-2.6,0.5-3.5,1.5
				C357.5,391.5,357,392.8,357,394.2z"/>
		</g>
		<path fill="#FFFFFF" d="M523,350.2c-0.7-1.3-1.6-2.5-2.6-3.6c-1.1-1.1-2.2-2-3.5-2.7c-1.3-0.7-2.5-1.1-3.7-1.1H473
			c-1.2,0-2.5,0.4-3.7,1.1c-1.3,0.7-2.5,1.6-3.5,2.7c-1,1.1-1.9,2.3-2.6,3.6c-0.7,1.3-1.1,2.5-1.1,3.7V402c0,1.2,0.3,2.4,0.8,3.5
			c0.6,1.2,1.3,2.2,2.2,3.2c0.9,1,1.9,1.8,3,2.5c1,0.7,2.1,1.2,3.1,1.5v5.7c0,2.3,2.7,4.1,5.9,4.1c3.3,0,5.9-1.9,5.9-4.1v-5.3H503
			v5.3c0,2.3,2.7,4.1,5.9,4.1c3.3,0,5.9-1.9,5.9-4.1v-5.6c0.6-0.2,1.3-0.4,1.9-0.8c1.3-0.7,2.5-1.6,3.5-2.6c1.1-1.1,1.9-2.3,2.6-3.6
			c0.7-1.3,1-2.6,1-3.8V354C524,352.8,523.7,351.5,523,350.2z M476.3,397.5c-0.9,1-2.1,1.4-3.6,1.4c-1.5,0-2.8-0.5-3.7-1.4
			c-1-1-1.5-2.2-1.5-3.7c0-1.5,0.5-2.7,1.5-3.6c1-1,2.2-1.4,3.7-1.4c1.4,0,2.6,0.5,3.5,1.4c1,1,1.5,2.2,1.5,3.6
			C477.7,395.3,477.2,396.5,476.3,397.5z M491.3,371.4c0,0.9-0.4,1.9-1.1,2.8c-0.7,1-1.6,1.4-2.6,1.4h-17c-0.2,0-0.4-0.1-0.7-0.2
			c-0.7-0.3-1.4-0.7-2.1-1.4c-0.7-0.7-1-1.5-1-2.2v-12.6c0-0.9,0.5-1.8,1.4-2.6c0.9-0.8,1.8-1.3,2.7-1.3h16.3c1.1,0,2,0.5,2.8,1.4
			c0.8,0.9,1.2,1.9,1.2,3V371.4z M517.3,397.5c-0.9,1-2.2,1.4-3.7,1.4c-1.5,0-2.8-0.5-3.7-1.4c-0.9-1-1.4-2.2-1.4-3.7
			c0-1.5,0.5-2.8,1.4-3.7c1-0.9,2.2-1.4,3.6-1.4c1.5,0,2.8,0.5,3.7,1.4c0.9,1,1.4,2.2,1.4,3.6C518.7,395.3,518.2,396.5,517.3,397.5z
			 M518.9,371.6c0,0.9-0.4,1.8-1.2,2.6c-0.8,0.8-1.7,1.2-2.6,1.2h-17c-0.6-0.2-1-0.3-1.1-0.3c-0.7-0.3-1.3-0.8-1.8-1.5
			c-0.5-0.8-0.8-1.5-0.8-2.2v-11.9c0-1.1,0.4-2,1.2-2.9c0.8-0.9,1.8-1.4,2.8-1.4h16.4c1,0,1.9,0.4,2.8,1.3c0.9,0.9,1.3,1.8,1.3,2.7
			V371.6z"/>
	</g>
</g>
<g id="Calque_2">
	<g>
		<path fill="#FFFFFF" d="M132.8,113.7l-8.7,8.7l8.7,8.7l-11.6,11.6l41.6,41.6c5.8,5.8,14.6,5.8,20.3,0c5.8-5.8,5.8-14.5,0-20.3
			L132.8,113.7z M170.6,179.6c-3.9,0-7.8-2.9-7.8-7.8c0-3.9,2.9-7.8,7.8-7.8c4.9,0,7.8,2.9,7.8,7.8
			C178.3,176.7,175.4,179.6,170.6,179.6L170.6,179.6z M170.6,179.6"/>
		<g>
			<path fill="#FFFFFF" d="M67.9,111.7l8.8-5.8l14.5-16.5l8.7,8.7l8.7-8.7l-0.9-1c1.9-4.9,2.9-9.7,2.9-15.5
				c0-21.3-17.4-38.7-38.7-38.7c-5.8,0-10.6,0.9-15.5,2.9l28,28.1L64,85.6l-28.1-28C33.9,62.3,33,67.2,33,73
				C33,93.3,48.5,108.8,67.9,111.7L67.9,111.7z M67.9,111.7"/>
			<path fill="#FFFFFF" d="M110.5,138.9l8.8-7.8l-8.8-8.7l55.3-55.3l11.6-3.9L188,42l-6.8-6.8l-22.3,9.7l-4.8,11.6l-54.3,55.2
				l-8.7-8.7l-7.8,8.7c0,0,7.8,5.8-1,14.6c-4.8,4.8-12.6-1-27.1,13.5l-20.3,20.3c0,0-5.8,9.7,5.8,21.3c11.6,11.6,21.3,5.8,21.3,5.8
				L82.4,167c13.6-13.6,8.8-22.3,12.6-26.2C103.7,132.1,110.5,138.9,110.5,138.9L110.5,138.9z M80.5,135l6.8,6.8l-36.8,36.9
				l-6.8-6.8L80.5,135z M80.5,135"/>
		</g>
	</g>
</g>
</svg>
