<?xml version="1.0" encoding="utf-8"?>
<!-- Generator: Adobe Illustrator 18.0.0, SVG Export Plug-In . SVG Version: 6.00 Build 0)  -->
<!DOCTYPE svg PUBLIC "-//W3C//DTD SVG 1.1//EN" "http://www.w3.org/Graphics/SVG/1.1/DTD/svg11.dtd">
<svg version="1.1" xmlns="http://www.w3.org/2000/svg" xmlns:xlink="http://www.w3.org/1999/xlink" x="0px" y="0px"
	 viewBox="0 0 318 223" enable-background="new 0 0 318 223" xml:space="preserve">
<g id="Calque_1">
	<g>
		<g>
			<path fill="#FFFFFF" d="M385.5,410.7h-6.5V371l3.8-28.5c0.2-1.6,0.7-3,1.5-4.2c0.8-1.2,1.8-2.3,3-3.2c1.2-0.9,2.5-1.6,4-2.2
				c1.5-0.6,2.9-1,4.4-1.5c3.6-0.9,7.2-1.7,10.8-2.3c3.6-0.6,7.3-0.9,11.1-0.9c1.1,0,2.3,0,3.5,0.1c1.2,0.1,2.3,0.2,3.3,0.3
				c0.3,0,0.9,0.1,1.8,0.2c0.9,0.1,1.8,0.3,2.8,0.4c1,0.2,1.9,0.3,2.8,0.5c0.9,0.2,1.5,0.3,1.9,0.3c0.1,0,0.5,0.1,1,0.2
				c0.5,0.1,1.1,0.3,1.8,0.4c0.6,0.2,1.3,0.3,1.9,0.4c0.6,0.1,1.1,0.2,1.5,0.3c1.1,0.3,2.3,0.8,3.7,1.3c1.3,0.5,2.6,1.2,3.8,2
				c1.2,0.8,2.2,1.7,3.1,2.8c0.9,1.1,1.4,2.3,1.6,3.7l3.7,28.1v41.2h-6.2v7c0,1.5-0.6,2.6-1.7,3.5c-1.2,0.9-2.4,1.4-3.7,1.4
				c-1.1,0-2-0.2-2.9-0.5c-0.9-0.4-1.6-1.1-2.2-2.1c-0.1-0.1-0.2-0.5-0.5-1.1v-8.1h-42.2v7.8c0,0.1-0.1,0.4-0.4,0.9
				c-0.3,0.5-0.5,0.9-0.7,1.1c-0.5,0.8-1.1,1.3-1.9,1.6c-0.8,0.3-1.7,0.4-2.6,0.4c-2.5,0-4.3-1.2-5.2-3.6c-0.1-0.1-0.1-0.3-0.1-0.6
				c0-0.2-0.1-0.4-0.1-0.4V410.7z M385.7,370.9c0,0.9,0.2,1.6,0.8,2.2c0.5,0.6,1.2,0.9,2.1,0.9h57.9c0.9,0,1.6-0.3,2.1-0.9
				c0.5-0.6,0.7-1.4,0.7-2.2v-0.7l-3.1-21.5c-0.1-0.8-0.5-1.6-1-2.4c-0.6-0.8-1.4-1.2-2.3-1.2h-50.9c-0.9,0-1.7,0.4-2.2,1.1
				c-0.6,0.8-0.9,1.5-1,2.3l-3.1,21.6V370.9z M385.7,392.9c0,1.5,0.5,2.7,1.5,3.7c1,1,2.3,1.5,3.6,1.5c1.5,0,2.7-0.5,3.8-1.4
				c1.1-1,1.6-2.2,1.6-3.7c0-1.6-0.5-2.9-1.6-3.8c-1.1-0.9-2.4-1.4-3.8-1.4c-1.4,0-2.6,0.5-3.6,1.4
				C386.2,390.2,385.7,391.4,385.7,392.9z M399.4,337.7c0,0.6,0.2,1.2,0.5,1.7c0.4,0.5,0.9,0.8,1.5,0.8h32.3c0.5,0,1-0.3,1.4-0.8
				c0.4-0.5,0.6-1.1,0.6-1.6c0-0.3-0.1-0.8-0.4-1.3c-0.2-0.5-0.6-0.8-1-0.8h-33.6c-0.5,0-0.8,0.2-1,0.7
				C399.5,337,399.4,337.4,399.4,337.7z M438.8,392.9c0,1.5,0.5,2.8,1.5,3.7c1,1,2.3,1.4,3.7,1.4c1.5,0,2.7-0.5,3.8-1.4
				c1.1-1,1.6-2.2,1.6-3.7c0-1.5-0.5-2.8-1.5-3.7c-1-1-2.3-1.4-3.8-1.4c-1.5,0-2.7,0.5-3.7,1.4C439.3,390.2,438.8,391.4,438.8,392.9
				z"/>
		</g>
		<g>
			<path fill="#FFFFFF" d="M307.7,410.6h-5.4v-20.9c0-1,0.4-2,1.1-3c0.8-1,1.5-1.8,2.3-2.2c0.2-0.1,0.4-0.1,0.7-0.2
				c0.3-0.1,0.6-0.2,0.9-0.4c0.3-0.1,0.6-0.3,0.8-0.4c0.2-0.1,0.4-0.3,0.4-0.6l5.7-14.3c0.5-1.3,1.4-2.5,2.5-3.6
				c1.2-1.1,2.5-1.7,4-1.7h33.9c1.3,0,2.6,0.5,3.8,1.6c1.2,1,2,2.2,2.5,3.3l5.6,14.3c0.2,0.7,0.6,1.1,1.2,1.3
				c0.6,0.2,1.2,0.4,1.7,0.7c1.1,0.6,1.9,1.6,2.6,2.8c0.7,1.2,1.1,2.4,1.1,3.6v19.8h-5.3l-0.4,0.4v7.3c0,0.6-0.2,1.2-0.5,1.7
				c-0.4,0.5-0.8,1-1.3,1.4c-0.5,0.4-1.1,0.7-1.7,0.9c-0.6,0.2-1.3,0.3-1.8,0.3c-1.2,0-2.4-0.5-3.6-1.4c-1.2-0.9-1.7-2-1.7-3.4v-7.1
				h-38.1c0,1.1,0,2.3,0,3.7c0,1.4-0.1,2.7-0.4,3.8c-0.3,1.2-0.9,2.2-1.7,3c-0.8,0.8-2,1.2-3.5,1.2c-1.2,0-2.2-0.3-3-1
				c-0.8-0.7-1.5-1.5-2.1-2.6c-0.1-0.1-0.1-0.4-0.2-0.7V410.6z M308.4,394.2c0,1.4,0.4,2.6,1.3,3.6c0.9,1,2,1.5,3.5,1.5
				c1.3,0,2.5-0.5,3.5-1.5c1-1,1.4-2.2,1.4-3.6c0-1.4-0.5-2.6-1.4-3.6c-1-1-2.1-1.5-3.5-1.5c-1.5,0-2.7,0.5-3.5,1.6
				C308.8,391.6,308.4,392.8,308.4,394.2z M314.5,383.3h46.2l-4.5-12.2c-0.2-0.5-0.5-1-1-1.6c-0.5-0.6-1.1-0.9-1.8-0.9h-31.7
				c-0.6,0-1.1,0.2-1.6,0.7c-0.5,0.5-0.8,1-0.9,1.4L314.5,383.3z M357,394.2c0,1.4,0.5,2.6,1.4,3.6c1,1,2.1,1.5,3.5,1.5
				s2.6-0.5,3.5-1.6c0.9-1,1.4-2.2,1.4-3.6c0-1.3-0.5-2.5-1.4-3.6c-0.9-1-2.1-1.6-3.5-1.6s-2.6,0.5-3.5,1.5
				C357.5,391.5,357,392.8,357,394.2z"/>
		</g>
		<path fill="#FFFFFF" d="M523,350.2c-0.7-1.3-1.6-2.5-2.6-3.6c-1.1-1.1-2.2-2-3.5-2.7c-1.3-0.7-2.5-1.1-3.7-1.1H473
			c-1.2,0-2.5,0.4-3.7,1.1c-1.3,0.7-2.5,1.6-3.5,2.7c-1,1.1-1.9,2.3-2.6,3.6c-0.7,1.3-1.1,2.5-1.1,3.7V402c0,1.2,0.3,2.4,0.8,3.5
			c0.6,1.2,1.3,2.2,2.2,3.2c0.9,1,1.9,1.8,3,2.5c1,0.7,2.1,1.2,3.1,1.5v5.7c0,2.3,2.7,4.1,5.9,4.1c3.3,0,5.9-1.9,5.9-4.1v-5.3H503
			v5.3c0,2.3,2.7,4.1,5.9,4.1c3.3,0,5.9-1.9,5.9-4.1v-5.6c0.6-0.2,1.3-0.4,1.9-0.8c1.3-0.7,2.5-1.6,3.5-2.6c1.1-1.1,1.9-2.3,2.6-3.6
			c0.7-1.3,1-2.6,1-3.8V354C524,352.8,523.7,351.5,523,350.2z M476.3,397.5c-0.9,1-2.1,1.4-3.6,1.4c-1.5,0-2.8-0.5-3.7-1.4
			c-1-1-1.5-2.2-1.5-3.7c0-1.5,0.5-2.7,1.5-3.6c1-1,2.2-1.4,3.7-1.4c1.4,0,2.6,0.5,3.5,1.4c1,1,1.5,2.2,1.5,3.6
			C477.7,395.3,477.2,396.5,476.3,397.5z M491.3,371.4c0,0.9-0.4,1.9-1.1,2.8c-0.7,1-1.6,1.4-2.6,1.4h-17c-0.2,0-0.4-0.1-0.7-0.2
			c-0.7-0.3-1.4-0.7-2.1-1.4c-0.7-0.7-1-1.5-1-2.2v-12.6c0-0.9,0.5-1.8,1.4-2.6c0.9-0.8,1.8-1.3,2.7-1.3h16.3c1.1,0,2,0.5,2.8,1.4
			c0.8,0.9,1.2,1.9,1.2,3V371.4z M517.3,397.5c-0.9,1-2.2,1.4-3.7,1.4c-1.5,0-2.8-0.5-3.7-1.4c-0.9-1-1.4-2.2-1.4-3.7
			c0-1.5,0.5-2.8,1.4-3.7c1-0.9,2.2-1.4,3.6-1.4c1.5,0,2.8,0.5,3.7,1.4c0.9,1,1.4,2.2,1.4,3.6C518.7,395.3,518.2,396.5,517.3,397.5z
			 M518.9,371.6c0,0.9-0.4,1.8-1.2,2.6c-0.8,0.8-1.7,1.2-2.6,1.2h-17c-0.6-0.2-1-0.3-1.1-0.3c-0.7-0.3-1.3-0.8-1.8-1.5
			c-0.5-0.8-0.8-1.5-0.8-2.2v-11.9c0-1.1,0.4-2,1.2-2.9c0.8-0.9,1.8-1.4,2.8-1.4h16.4c1,0,1.9,0.4,2.8,1.3c0.9,0.9,1.3,1.8,1.3,2.7
			V371.6z"/>
	</g>
</g>
<g id="Calque_2">
	<g>
		<path fill="#FFFFFF" d="M-193.1,105.7l-8.7,8.7l8.7,8.7l-11.6,11.6l41.6,41.6c5.8,5.8,14.6,5.8,20.3,0c5.8-5.8,5.8-14.5,0-20.3
			L-193.1,105.7z M-155.4,171.6c-3.9,0-7.8-2.9-7.8-7.8c0-3.9,2.9-7.8,7.8-7.8c4.9,0,7.8,2.9,7.8,7.8
			C-147.6,168.7-150.5,171.6-155.4,171.6L-155.4,171.6z M-155.4,171.6"/>
		<g>
			<path fill="#FFFFFF" d="M-258.1,103.7l8.8-5.8l14.5-16.5l8.7,8.7l8.7-8.7l-0.9-1c1.9-4.9,2.9-9.7,2.9-15.5
				c0-21.3-17.4-38.7-38.7-38.7c-5.8,0-10.6,0.9-15.5,2.9l28,28.1l-20.3,20.3l-28.1-28c-1.9,4.8-2.9,9.7-2.9,15.5
				C-292.9,85.3-277.4,100.8-258.1,103.7L-258.1,103.7z M-258.1,103.7"/>
			<path fill="#FFFFFF" d="M-215.4,130.9l8.8-7.8l-8.8-8.7l55.3-55.3l11.6-3.9l10.6-21.3l-6.8-6.8l-22.3,9.7l-4.8,11.6l-54.3,55.2
				l-8.7-8.7l-7.8,8.7c0,0,7.8,5.8-1,14.6c-4.8,4.8-12.6-1-27.1,13.5l-20.3,20.3c0,0-5.8,9.7,5.8,21.3c11.6,11.6,21.3,5.8,21.3,5.8
				l20.3-20.3c13.6-13.6,8.8-22.3,12.6-26.2C-222.2,124.1-215.4,130.9-215.4,130.9L-215.4,130.9z M-245.4,127l6.8,6.8l-36.8,36.9
				l-6.8-6.8L-245.4,127z M-245.4,127"/>
		</g>
	</g>
	<g>
		<path fill="#FFFFFF" d="M-323,201.4l-13.2,18.5v5.6h36.1v-24.1H-323z M-304.9,220.6h-25.9l10.3-14.4h15.6V220.6z M-304.9,220.6"/>
		<path fill="#FFFFFF" d="M-297.7,201.4v24.1h36.1v-5.6l-13.2-18.5H-297.7z M-292.9,220.6v-14.4h15.6l10.3,14.4H-292.9z
			 M-292.9,220.6"/>
		<rect x="-307.4" y="227.8" fill="#FFFFFF" width="7.2" height="4.8"/>
		<path fill="#FFFFFF" d="M-343.4,266.3c4,0,7.2-3.2,7.2-7.2c0-4-3.2-7.2-7.2-7.2s-7.2,3.2-7.2,7.2
			C-350.7,263.1-347.4,266.3-343.4,266.3L-343.4,266.3z M-343.4,256.7c1.3,0,2.4,1.1,2.4,2.4c0,1.3-1.1,2.4-2.4,2.4
			c-1.3,0-2.4-1.1-2.4-2.4C-345.9,257.8-344.8,256.7-343.4,256.7L-343.4,256.7z M-343.4,256.7"/>
		<path fill="#FFFFFF" d="M-235.2,261.5c6,0,7.2-3.9,7.2-7.2v-21.7c0-6-4.9-11.3-9-12l-9.6-2.4c-2.4-0.6-3.8-1.6-5.9-3.9l-12.1-16.9
			c-3.1-4-6.7-5.7-11.5-5.7h-45.7c-4.9,0-8.4,1.8-11.6,5.8l-11.9,16.7c-2.2,2.5-3.8,3.6-5.8,4l-14.5,2.4
			c-6.9,1.4-11.5,7.2-11.5,14.4v16.8c0,5.2,4.4,9.6,9.6,9.6h7.4c0.5,3.7,2.3,7.1,4.9,9.6h-21.9v19.2h42.9l23.5,7.2l-23.8,7.3
			l0.1,4.6l22.6,6.1l-22.3,6h-43v19.2H-228v-19.2h-43l-22.3-6l22.6-6.1l0.1-4.6l-23.8-7.3l23.5-7.2h42.9v-19.2h-21.9
			c2.6-2.5,4.3-5.9,4.9-9.6H-235.2z M-355.5,259.1c0-6.6,5.4-12,12-12c6.6,0,12,5.4,12,12c0,6.6-5.4,12-12,12
			C-350.1,271.1-355.5,265.7-355.5,259.1L-355.5,259.1z M-326.8,261.5h48.5c0.5,3.7,2.3,7.1,4.9,9.6h-58.3
			C-329.1,268.6-327.3,265.3-326.8,261.5L-326.8,261.5z M-232.8,326.5v9.6h-139.6v-9.6H-232.8z M-289.5,321.7h-26.2l13.1-3.5
			L-289.5,321.7z M-279.9,307.1l-22.6,6.1l-22.6-6.1l22.6-7L-279.9,307.1z M-302.5,295.1l-15.3-4.7h30.6L-302.5,295.1z
			 M-232.8,275.9v9.6h-139.6v-9.6H-232.8z M-261.6,271.1c-6.6,0-12-5.4-12-12c0-6.6,5.4-12,12-12c6.6,0,12,5.4,12,12
			C-249.6,265.7-255,271.1-261.6,271.1L-261.6,271.1z M-261.6,242.3c-8.5,0-15.5,6.3-16.6,14.4h-48.5c-1.2-8.1-8.2-14.4-16.7-14.4
			c-8.5,0-15.5,6.3-16.6,14.4h-7.4c-2.6,0-4.8-2.2-4.8-4.8v-12h4.8v4.8h4.8v-4.8c0-3.1-1.7-4.8-4.8-4.8h-4.8c0-6,4-8.9,7.6-9.7
			l14.5-2.4c3.1-0.6,5.7-2.3,8.7-5.8l12-16.8c2.2-2.8,4.3-3.9,7.7-3.9h45.7c3.4,0,5.5,1.1,7.7,3.8l12.2,17c2.4,2.7,4.6,4.6,8.5,5.6
			l9.8,2.4c2.1,0.4,5.2,3.6,5.2,7.3v21.7c0,2.1-0.3,2.4-2.4,2.4h-9.8C-246.2,248.5-253.2,242.3-261.6,242.3L-261.6,242.3z
			 M-261.6,242.3"/>
		<path fill="#FFFFFF" d="M-261.6,251.9c-4,0-7.2,3.2-7.2,7.2c0,4,3.2,7.2,7.2,7.2c4,0,7.2-3.2,7.2-7.2
			C-254.4,255.1-257.7,251.9-261.6,251.9L-261.6,251.9z M-261.6,261.5c-1.3,0-2.4-1.1-2.4-2.4c0-1.3,1.1-2.4,2.4-2.4
			c1.3,0,2.4,1.1,2.4,2.4C-259.2,260.4-260.3,261.5-261.6,261.5L-261.6,261.5z M-261.6,261.5"/>
		<rect x="-357.9" y="295.2" fill="#FFFFFF" width="4.8" height="12"/>
		<rect x="-367.5" y="300" fill="#FFFFFF" width="4.8" height="16.8"/>
		<rect x="-244.8" y="295.2" fill="#FFFFFF" width="4.8" height="9.6"/>
		<rect x="-254.4" y="295.2" fill="#FFFFFF" width="4.8" height="21.7"/>
		<rect x="-288.1" y="247.1" fill="#FFFFFF" width="4.8" height="4.8"/>
		<rect x="-297.7" y="247.1" fill="#FFFFFF" width="4.8" height="4.8"/>
		<rect x="-242.4" y="247.1" fill="#FFFFFF" width="4.8" height="4.8"/>
		<rect x="-367.5" y="328.9" fill="#FFFFFF" width="4.8" height="4.8"/>
		<rect x="-357.9" y="328.9" fill="#FFFFFF" width="4.8" height="4.8"/>
	</g>
	<g>
		<path fill="#FFFFFF" d="M-112.3,342.9c-1.4,0-2.5,1.1-2.5,2.5c0,1.4,1.1,2.5,2.5,2.5h13.6c1.4,0,2.5-1.1,2.5-2.5
			c0-1.4-1.1-2.5-2.5-2.5H-112.3z"/>
		<path fill="#FFFFFF" d="M-138.6,371c0,1.4-1.1,2.5-2.5,2.5h-7.6c-1.4,0-2.5-1.1-2.5-2.5s1.1-2.5,2.5-2.5h7.6
			C-139.8,368.4-138.6,369.6-138.6,371L-138.6,371z M-148.8,363.3c-1.4,0-2.5-1.1-2.5-2.5c0-1.4,1.1-2.5,2.5-2.5h12.7
			c1.4,0,2.5,1.1,2.5,2.5c0,1.4-1.1,2.5-2.5,2.5H-148.8z M-91,345.5c0,4.2-3.4,7.6-7.6,7.6h-13.6c-4.2,0-7.6-3.4-7.6-7.6
			c0-4.2,3.4-7.6,7.6-7.6h13.6C-94.5,337.8-91,341.3-91,345.5L-91,345.5z M-46.9,388.8V399c0,1.4-1.1,2.5-2.5,2.5H-52H-159h-2.5
			c-1.4,0-2.5-1.1-2.5-2.5v-10.2c0-1.4,1.1-2.5,2.5-2.5h7.6h96.9h7.6C-48,386.3-46.9,387.4-46.9,388.8L-46.9,388.8z M-98.7,427.1
			h-13.6c-4.2,0-7.6-3.4-7.6-7.6s3.4-7.6,7.6-7.6h13.6c4.2,0,7.6,3.4,7.6,7.6S-94.5,427.1-98.7,427.1L-98.7,427.1z M-136.1,437.3
			h-12.7c-1.4,0-2.5-1.1-2.5-2.5s1.1-2.5,2.5-2.5h12.7c1.4,0,2.5,1.1,2.5,2.5S-134.7,437.3-136.1,437.3L-136.1,437.3z M-141.2,447.5
			h-7.6c-1.4,0-2.5-1.1-2.5-2.5s1.1-2.5,2.5-2.5h7.6c1.4,0,2.5,1.1,2.5,2.5S-139.8,447.5-141.2,447.5L-141.2,447.5z M-164.1,325.1
			v-10.2c0-1.4,1.1-2.5,2.5-2.5h112.2c1.4,0,2.5,1.1,2.5,2.5v10.2c0,1.4-1.1,2.5-2.5,2.5H-52H-159h-2.5
			C-163,327.6-164.1,326.5-164.1,325.1L-164.1,325.1z M-49.4,332.7c4.2,0,7.6-3.4,7.6-7.6v-10.2c0-4.2-3.4-7.6-7.6-7.6h-112.2
			c-4.2,0-7.6,3.4-7.6,7.6v10.2c0,4.2,3.4,7.6,7.6,7.6v45.9c0,0.9,0.2,1.7,0.5,2.5h-0.5c-4.2,0-7.6,3.4-7.6,7.6V399
			c0,4.2,3.4,7.6,7.6,7.6v45.9c0,4.2,3.4,7.6,7.6,7.6h96.9c4.2,0,7.6-3.4,7.6-7.6v-45.9c4.2,0,7.6-3.4,7.6-7.6v-10.2
			c0-4.2-3.4-7.6-7.6-7.6h-0.5c0.3-0.8,0.5-1.7,0.5-2.5V332.7z"/>
		<path fill="#FFFFFF" d="M-98.7,416.9h-13.6c-1.4,0-2.5,1.1-2.5,2.5c0,1.4,1.1,2.5,2.5,2.5h13.6c1.4,0,2.5-1.1,2.5-2.5
			C-96.1,418-97.3,416.9-98.7,416.9"/>
	</g>
	<g>
		<g>
			<path fill="#FFFFFF" d="M-182.4-149.2c0.5,2.4,1.3,4,2.3,5c2.2,15.6,16.3,28.9,27.5,28.4c14.3-0.7,24.5-16.2,26.8-28.4
				c0.9-1,1.9-3.1,2.4-5.5c0.6-2.8,1.3-7-0.4-9.3c-0.1-0.1-0.7-0.7-0.9-0.8c1.6-5.8,5.2-16.2-3.7-25.5c-4.8-5.1-11.4-7.6-17.4-9.6
				c-17.7-5.9-30.2,2.4-36,16.2c-0.4,1-3.1,7.2,0.2,18.9c-0.3,0.2-0.6,0.5-0.9,0.8C-184.1-156.8-183-152-182.4-149.2L-182.4-149.2z
				 M-182.4-149.2"/>
			<path fill="#FFFFFF" d="M-90.8-63.2C-91.3-74-92-91.1-101.4-105c0,0-2.7-3.6-9-6.1c0,0-13.8-4.2-20.2-8.8l-2.9,2l0.3,18.9
				l-17.4,46.5c-0.4,1-1.4,1.7-2.5,1.7c-1.1,0-2.1-0.7-2.4-1.7L-172.8-99c0,0,0.3-18.8,0.3-18.9c0,0.1-2.9-2-2.9-2
				c-6.3,4.6-20.2,8.8-20.2,8.8c-6.4,2.4-9,6.1-9,6.1c-9.4,13.9-10,31-10.5,41.8c-0.3,7.4,1.2,10.2,3.2,11
				c24.3,9.8,93.6,9.8,117.9,0C-92.1-53-90.5-55.8-90.8-63.2L-90.8-63.2z M-90.8-63.2"/>
		</g>
		<path fill="#FFFFFF" d="M-152.4-109.8h-0.8c-2.6,0-5.1-0.5-7.6-1.3l6.9,10.6l-6.2,6l6.4,38.7c0.1,0.3,0.3,0.6,0.7,0.6
			c0.3,0,0.6-0.2,0.7-0.6l6.4-38.7l-6.2-6l6.8-10.4C-147.5-110.4-149.9-109.9-152.4-109.8L-152.4-109.8z M-152.4-109.8"/>
	</g>
	<g>
		<path fill="#FFFFFF" d="M376.5,104.1h-11.2V60.9c0-2.1,0.8-4.1,2.3-6.3c1.6-2.1,3.1-3.6,4.7-4.6c0.4-0.1,0.8-0.3,1.4-0.4
			c0.6-0.2,1.2-0.4,1.8-0.7c0.6-0.3,1.2-0.6,1.6-0.9c0.5-0.3,0.7-0.7,0.7-1.2l11.7-29.7c1.1-2.6,2.8-5.1,5.2-7.5
			c2.4-2.4,5.2-3.5,8.3-3.5h70.2c2.8,0,5.4,1.1,7.9,3.3c2.5,2.2,4.2,4.5,5.1,6.9L498,45.9c0.5,1.5,1.3,2.4,2.5,2.7
			c1.2,0.4,2.4,0.8,3.6,1.4c2.2,1.3,4,3.2,5.4,5.7c1.5,2.5,2.2,5,2.2,7.5v40.9h-11L500,105v15c0,1.3-0.4,2.5-1.1,3.6
			c-0.7,1.1-1.6,2-2.7,2.8c-1.1,0.8-2.3,1.4-3.6,1.8c-1.3,0.4-2.6,0.6-3.8,0.6c-2.5,0-5-0.9-7.4-2.8c-2.4-1.9-3.6-4.2-3.6-7v-14.7
			h-78.9c0,2.3,0,4.9,0.1,7.7c0.1,2.8-0.2,5.5-0.9,8c-0.7,2.5-1.8,4.6-3.4,6.2c-1.6,1.7-4.1,2.5-7.3,2.5c-2.4,0-4.5-0.7-6.2-2.1
			c-1.8-1.4-3.2-3.2-4.2-5.3c-0.1-0.2-0.3-0.7-0.4-1.5V104.1z M377.9,70.1c0,2.9,0.9,5.4,2.7,7.5c1.8,2.1,4.2,3.2,7.3,3.2
			c2.8,0,5.2-1,7.1-3.2c2-2.1,3-4.6,3-7.5c0-2.9-1-5.4-3-7.5c-2-2.1-4.4-3.2-7.1-3.2c-3.1,0-5.6,1.1-7.3,3.3
			C378.8,64.9,377.9,67.4,377.9,70.1z M390.6,47.7h95.5l-9.4-25.3c-0.4-1-1-2.1-2-3.3c-1-1.3-2.2-1.9-3.6-1.9h-65.6
			c-1.2,0-2.3,0.5-3.3,1.5c-1,1-1.7,2-1.9,3L390.6,47.7z M478.5,70.1c0,2.9,1,5.4,3,7.5c2,2.1,4.4,3.2,7.3,3.2s5.3-1.1,7.2-3.3
			c1.9-2.2,2.9-4.6,2.9-7.4c0-2.8-1-5.3-2.9-7.4c-1.9-2.2-4.3-3.3-7.2-3.3s-5.3,1-7.3,3.2C479.4,64.7,478.5,67.2,478.5,70.1z"/>
	</g>
	<path fill="#FFFFFF" d="M472.8,286.7l0.6-0.9L484,285l-2.8-39.3c-0.2-2.4-1-4.8-2.6-7.1c-1.6-2.3-3.4-4-5.6-5.1
		c-1.2-0.5-2.4-0.9-3.5-1.1c-1.2-0.3-2.1-1.1-2.6-2.4l-13.2-27.7c-1.1-2.3-2.9-4.4-5.4-6.3c-2.5-1.9-5.1-2.8-7.8-2.6l-67.4,4.9
		c-3,0.2-5.6,1.5-7.7,4c-2.1,2.4-3.6,5-4.5,7.6l-9.2,29.3c0,0.5-0.2,0.9-0.6,1.2c-0.4,0.3-0.9,0.7-1.5,1c-0.6,0.3-1.1,0.6-1.7,0.8
		c-0.6,0.2-1,0.4-1.4,0.5c-1.4,1-2.8,2.6-4.2,4.8c-1.4,2.2-1.9,4.2-1.8,6.2l3,41.5l10.8-0.8l1.1,15.3c0.1,0.5,0.2,0.9,0.3,1.1h19.7
		c0.3-0.8,0.5-1.7,0.7-2.5c0.5-2.4,0.6-5,0.3-7.7c-0.2-2.7-0.4-5.2-0.6-7.4l75.8-5.5l1,14.1c0.2,2.7,1.5,4.8,4,6.4
		c2.4,1.6,4.9,2.4,7.3,2.2c1.1-0.1,2.4-0.4,3.6-0.9c1.2-0.5,2.4-1.2,3.3-2c1-0.8,1.8-1.8,2.4-2.9c0.6-1.1,0.9-2.3,0.8-3.5
		L472.8,286.7z M370,267.7c-1.7,2.2-4,3.3-6.6,3.5c-2.9,0.2-5.3-0.6-7.2-2.5c-1.9-1.9-2.9-4.2-3.1-7c-0.2-2.7,0.5-5.1,2-7.3
		c1.5-2.2,3.8-3.4,6.8-3.6c2.7-0.2,5,0.6,7.1,2.5c2.1,1.9,3.2,4.2,3.4,7C372.5,263,371.7,265.5,370,267.7z M363.6,239.2l7.4-25.7
		c0.2-0.9,0.7-1.9,1.6-3c0.9-1.1,2-1.6,3.1-1.7l63.1-4.6c1.4-0.1,2.6,0.4,3.6,1.6c1,1.1,1.7,2.2,2.2,3.1l10.8,23.7L363.6,239.2z
		 M467,260.5c-1.7,2.2-3.9,3.4-6.7,3.6c-2.8,0.2-5.2-0.6-7.3-2.5c-2.1-1.9-3.2-4.2-3.4-7c-0.2-2.8,0.6-5.3,2.4-7.4
		c1.8-2.2,4-3.3,6.8-3.6c2.8-0.2,5.2,0.7,7.2,2.6c2,1.9,3.1,4.3,3.3,6.9C469.5,255.9,468.7,258.3,467,260.5z"/>
	<path fill="#FFFFFF" d="M300.7,297.7l29.7,12.1l-31.8-4.2c-2.4-0.3-3.3-1.5-3-3l1.2-4.3c0-0.9,0.6-1.2,1.2-1.5
		C298.9,296.5,299.8,296.8,300.7,297.7L300.7,297.7z"/>
	<path fill="#FFFFFF" d="M335.8,298.1l-12.4-29.7c-0.9-1.5-1.8-2.4-2.7-2.4c-0.3,0-0.6,0-0.9,0.3l-3.6,2.5c-1.5,0.9-1.2,2.4,0.3,4
		L335.8,298.1z"/>
	<path fill="#FFFFFF" d="M304.3,272.3c-0.6,0-1.2,0.3-1.8,0.9l-3.6,3.6c-1.5,1.5-0.9,3.3,1.5,5.2l31.5,24.3l-24.3-31.5
		C306.5,273.2,305.5,272.3,304.3,272.3L304.3,272.3z"/>
	<path fill="#FFFFFF" d="M304.3,272.3"/>
	<g>
		<path fill="#FFFFFF" d="M184.9-136.7c0,0,0-0.1,0-0.1c-1.6-6.2-7.2-10.5-13.6-10.5h-13.7v-7.8h19.7c2.2,0,4-1.8,4-4v-12.6
			c0-2.2-1.8-4-4-4h-47.5c-2.2,0-4,1.8-4,4v12.6c0,2.2,1.8,4,4,4h19.7v7.8H88.5c-6.4,0-12,4.3-13.6,10.5c0,0,0,0.1,0,0.1L61.3-77.6
			c0.4,0,0.8-0.1,1.1-0.1h135c0.4,0,0.8,0,1.1,0.1L184.9-136.7z M172.5-118.3c0,2.2-1.8,4-4,4H91.3c-2.2,0-4-1.8-4-4v-9.3
			c0-2.2,1.8-4,4-4h77.2c2.2,0,4,1.8,4,4V-118.3z M197.4-69.6h-135c-3,0-5.4,2.4-5.4,5.4v21.5c0,3,2.4,5.4,5.4,5.4h135
			c3,0,5.4-2.4,5.4-5.4v-21.5C202.8-67.2,200.4-69.6,197.4-69.6L197.4-69.6z M142.1-52.8c0,4.1-3.3,7.4-7.4,7.4h-9.1
			c-4.1,0-7.4-3.3-7.4-7.4v-1.3c0-4.1,3.3-7.4,7.4-7.4h9.1c4.1,0,7.4,3.3,7.4,7.4V-52.8z M142.1-52.8"/>
	</g>
	<g>
		<path fill="#FFFFFF" d="M-86,239.5v8.1h13.3C-72.8,247.7-77.5,243.4-86,239.5z"/>
		<path fill="#FFFFFF" d="M-60.7,280.7c0.1,0.6,0.2,1.1,0.2,1.7c0,0.5-0.1,1-0.2,1.4h4.3v-3.2H-60.7z"/>
		<path fill="#FFFFFF" d="M-56.6,263.7l-6.6-14.3h-22.3v24.7h-46.1c4.6,0.8,8,4.7,8,9.5c0,0.1,0,0.2,0,0.3h37.7h0.5h2.8
			c-0.1-0.5-0.1-1-0.1-1.4c0-0.6,0.1-1.2,0.2-1.7h-2.9v-0.9h3.5c1.2-4.6,5.3-8,10.2-8c5,0,9.1,3.4,10.3,8h4.8V263.7z M-68.1,264.6
			l-6.4-5.4H-83v-7.5h18.8l4.7,12.9H-68.1z"/>
		<path fill="#FFFFFF" d="M-71.7,275.1c-4.7,0-8.5,3.8-8.5,8.5c0,4.7,3.8,8.5,8.5,8.5c4.7,0,8.5-3.8,8.5-8.5
			C-63.2,278.9-67,275.1-71.7,275.1z M-71.7,287.3c-2.1,0-3.7-1.7-3.7-3.7c0-2.1,1.7-3.7,3.7-3.7c2.1,0,3.7,1.7,3.7,3.7
			C-68,285.6-69.7,287.3-71.7,287.3z"/>
		<path fill="#FFFFFF" d="M-133.2,275.1c-4.7,0-8.5,3.8-8.5,8.5c0,4.7,3.8,8.5,8.5,8.5c4.7,0,8.5-3.8,8.5-8.5
			C-124.7,278.9-128.5,275.1-133.2,275.1z M-133.2,287.3c-2.1,0-3.7-1.7-3.7-3.7c0-2.1,1.7-3.7,3.7-3.7c2.1,0,3.7,1.7,3.7,3.7
			C-129.5,285.6-131.1,287.3-133.2,287.3z"/>
		<path fill="#FFFFFF" d="M-213.8,276.5c-4.4,0-7.9,3.6-7.9,7.9c0,4.4,3.6,7.9,7.9,7.9c4.4,0,7.9-3.5,7.9-7.9
			C-205.9,280-209.5,276.5-213.8,276.5z M-213.8,287.9c-1.9,0-3.5-1.6-3.5-3.5c0-1.9,1.6-3.5,3.5-3.5c1.9,0,3.5,1.6,3.5,3.5
			C-210.3,286.3-211.9,287.9-213.8,287.9z"/>
		<path fill="#FFFFFF" d="M-195.3,276.5c-4.4,0-7.9,3.6-7.9,7.9c0,4.4,3.5,7.9,7.9,7.9c4.4,0,7.9-3.5,7.9-7.9
			C-187.4,280-191,276.5-195.3,276.5z M-195.3,287.9c-1.9,0-3.5-1.6-3.5-3.5c0-1.9,1.6-3.5,3.5-3.5c1.9,0,3.5,1.6,3.5,3.5
			C-191.8,286.3-193.4,287.9-195.3,287.9z"/>
		<path fill="#FFFFFF" d="M-176.6,276.5c-4.4,0-7.9,3.6-7.9,7.9c0,4.4,3.6,7.9,7.9,7.9c4.4,0,7.9-3.5,7.9-7.9
			C-168.6,280-172.2,276.5-176.6,276.5z M-176.6,287.9c-1.9,0-3.5-1.6-3.5-3.5c0-1.9,1.6-3.5,3.5-3.5c1.9,0,3.5,1.6,3.5,3.5
			C-173.1,286.3-174.6,287.9-176.6,287.9z"/>
		<path fill="#FFFFFF" d="M-232.7,283.2v2.3h8.8c0-0.3-0.1-0.6-0.1-0.9c0-0.5,0.1-1,0.1-1.4H-232.7z"/>
		<path fill="#FFFFFF" d="M-134.8,274.1h-20.3v9.8h12.3c0-0.1,0-0.2,0-0.3C-142.9,278.8-139.4,274.9-134.8,274.1z"/>
		<path fill="#FFFFFF" d="M-89.8,250.2v-10.7l-20.5,0.3h-124v33h2.5v9.7h8.2c1-4.5,5-7.8,9.7-7.8c4.2,0,7.8,2.6,9.3,6.4
			c1.4-3.7,5-6.4,9.3-6.4c4.4,0,8.1,2.8,9.4,6.7c1.3-3.9,5-6.7,9.4-6.7c4.7,0,8.7,3.3,9.7,7.8l1.1,0v-8.5v-0.7v-1.8h76.1V250.2z
			 M-228.3,277.7h-1.2v-4.9h1.2V277.7z"/>
	</g>
	<g>
		<path fill="#FFFFFF" d="M159.8,73.2v14.4h23.5C183.2,87.6,174.9,80,159.8,73.2z"/>
		<path fill="#FFFFFF" d="M204.6,146c0.2,1,0.3,2,0.3,3c0,0.9-0.1,1.7-0.3,2.5h7.6V146H204.6z"/>
		<path fill="#FFFFFF" d="M211.7,116l-11.6-25.3h-39.4v43.6H79.4c8,1.4,14.2,8.4,14.2,16.8c0,0.2,0,0.3,0,0.5h66.5h0.8h5
			c-0.1-0.8-0.2-1.7-0.2-2.5c0-1,0.1-2.1,0.3-3h-5.1v-1.6h6.2c2.1-8.1,9.4-14.1,18.1-14.1c8.8,0,16.1,6,18.1,14.1h8.5V116z
			 M191.5,117.6l-11.3-9.5h-15.2V94.8h33.1l8.4,22.8H191.5z"/>
		<path fill="#FFFFFF" d="M185,136.1c-8.3,0-15,6.7-15,15c0,8.3,6.7,15,15,15c8.3,0,15-6.7,15-15C200.1,142.8,193.3,136,185,136.1z
			 M185,157.7c-3.6,0-6.6-3-6.6-6.6c0-3.6,3-6.6,6.6-6.6c3.7,0,6.6,3,6.6,6.6C191.6,154.7,188.7,157.7,185,157.7z"/>
		<path fill="#FFFFFF" d="M76.5,136.1c-8.3,0-15,6.7-15,15c0,8.3,6.7,15,15,15c8.3,0,15-6.7,15-15C91.5,142.8,84.8,136,76.5,136.1z
			 M76.5,157.7c-3.6,0-6.6-3-6.6-6.6c0-3.6,3-6.6,6.6-6.6c3.7,0,6.6,3,6.6,6.6C83.1,154.7,80.1,157.7,76.5,157.7z"/>
		<path fill="#FFFFFF" d="M73.6,134.3H37.7v17.3h21.8c0-0.2,0-0.3,0-0.5C59.4,142.6,65.6,135.7,73.6,134.3z"/>
		<polygon fill="#FFFFFF" points="147.6,112.8 121.4,130.6 119.8,134.9 151,134.9 157.7,131.2 		"/>
		<path fill="#FFFFFF" d="M51,142.9c-4.2,0-7.7-1.7-7.7-3.8v-36.2c0-2.1,3.4-3.8,7.7-3.8c4.2,0,7.7,1.7,7.7,3.8v36.2
			C58.6,141.2,55.2,142.9,51,142.9z"/>
		<g>
			<path fill="#FFFFFF" d="M99.1,61l-23,62.6c13.7,7.5,27.2,14.2,32.5,16.8l26.1-71.2C129,67.7,114.5,64.2,99.1,61z"/>
			<path fill="#FFFFFF" d="M147.1,82.6c-1.7-3.9-3.8-6.9-5.4-8.9l-24.8,67.6c2.6-0.5,6.1-1.4,9.9-3.3c6.8-3.3,16-10,21.1-23.7
				C152.9,100.7,150.2,89.5,147.1,82.6z"/>
			<path fill="#FFFFFF" d="M91.1,59.4C78.4,56.9,66,55,58.4,55c-2.7,0-8.9,0-10.5,4.4L36,91.6c-1.7,4.6,3.2,9.1,11.6,14.9
				c5.3,3.6,12.5,8,21.4,13L91.1,59.4z"/>
		</g>
	</g>
</g>
</svg>
