<?xml version="1.0" encoding="utf-8"?>
<!-- Generator: Adobe Illustrator 18.0.0, SVG Export Plug-In . SVG Version: 6.00 Build 0)  -->
<!DOCTYPE svg PUBLIC "-//W3C//DTD SVG 1.1//EN" "http://www.w3.org/Graphics/SVG/1.1/DTD/svg11.dtd">
<svg version="1.1" xmlns="http://www.w3.org/2000/svg" xmlns:xlink="http://www.w3.org/1999/xlink" x="0px" y="0px"
	 viewBox="0 0 318 223" enable-background="new 0 0 318 223" xml:space="preserve">
<g id="Calque_1">
	<g>
		<g>
			<path fill="#FFFFFF" d="M385.5,410.7h-6.5V371l3.8-28.5c0.2-1.6,0.7-3,1.5-4.2c0.8-1.2,1.8-2.3,3-3.2c1.2-0.9,2.5-1.6,4-2.2
				c1.5-0.6,2.9-1,4.4-1.5c3.6-0.9,7.2-1.7,10.8-2.3c3.6-0.6,7.3-0.9,11.1-0.9c1.1,0,2.3,0,3.5,0.1c1.2,0.1,2.3,0.2,3.3,0.3
				c0.3,0,0.9,0.1,1.8,0.2c0.9,0.1,1.8,0.3,2.8,0.4c1,0.2,1.9,0.3,2.8,0.5c0.9,0.2,1.5,0.3,1.9,0.3c0.1,0,0.5,0.1,1,0.2
				c0.5,0.1,1.1,0.3,1.8,0.4c0.6,0.2,1.3,0.3,1.9,0.4c0.6,0.1,1.1,0.2,1.5,0.3c1.1,0.3,2.3,0.8,3.7,1.3c1.3,0.5,2.6,1.2,3.8,2
				c1.2,0.8,2.2,1.7,3.1,2.8c0.9,1.1,1.4,2.3,1.6,3.7l3.7,28.1v41.2h-6.2v7c0,1.5-0.6,2.6-1.7,3.5c-1.2,0.9-2.4,1.4-3.7,1.4
				c-1.1,0-2-0.2-2.9-0.5c-0.9-0.4-1.6-1.1-2.2-2.1c-0.1-0.1-0.2-0.5-0.5-1.1v-8.1h-42.2v7.8c0,0.1-0.1,0.4-0.4,0.9
				c-0.3,0.5-0.5,0.9-0.7,1.1c-0.5,0.8-1.1,1.3-1.9,1.6c-0.8,0.3-1.7,0.4-2.6,0.4c-2.5,0-4.3-1.2-5.2-3.6c-0.1-0.1-0.1-0.3-0.1-0.6
				c0-0.2-0.1-0.4-0.1-0.4V410.7z M385.7,370.9c0,0.9,0.2,1.6,0.8,2.2c0.5,0.6,1.2,0.9,2.1,0.9h57.9c0.9,0,1.6-0.3,2.1-0.9
				c0.5-0.6,0.7-1.4,0.7-2.2v-0.7l-3.1-21.5c-0.1-0.8-0.5-1.6-1-2.4c-0.6-0.8-1.4-1.2-2.3-1.2h-50.9c-0.9,0-1.7,0.4-2.2,1.1
				c-0.6,0.8-0.9,1.5-1,2.3l-3.1,21.6V370.9z M385.7,392.9c0,1.5,0.5,2.7,1.5,3.7c1,1,2.3,1.5,3.6,1.5c1.5,0,2.7-0.5,3.8-1.4
				c1.1-1,1.6-2.2,1.6-3.7c0-1.6-0.5-2.9-1.6-3.8c-1.1-0.9-2.4-1.4-3.8-1.4c-1.4,0-2.6,0.5-3.6,1.4
				C386.2,390.2,385.7,391.4,385.7,392.9z M399.4,337.7c0,0.6,0.2,1.2,0.5,1.7c0.4,0.5,0.9,0.8,1.5,0.8h32.3c0.5,0,1-0.3,1.4-0.8
				c0.4-0.5,0.6-1.1,0.6-1.6c0-0.3-0.1-0.8-0.4-1.3c-0.2-0.5-0.6-0.8-1-0.8h-33.6c-0.5,0-0.8,0.2-1,0.7
				C399.5,337,399.4,337.4,399.4,337.7z M438.8,392.9c0,1.5,0.5,2.8,1.5,3.7c1,1,2.3,1.4,3.7,1.4c1.5,0,2.7-0.5,3.8-1.4
				c1.1-1,1.6-2.2,1.6-3.7c0-1.5-0.5-2.8-1.5-3.7c-1-1-2.3-1.4-3.8-1.4c-1.5,0-2.7,0.5-3.7,1.4C439.3,390.2,438.8,391.4,438.8,392.9
				z"/>
		</g>
		<g>
			<path fill="#FFFFFF" d="M307.7,410.6h-5.4v-20.9c0-1,0.4-2,1.1-3c0.8-1,1.5-1.8,2.3-2.2c0.2-0.1,0.4-0.1,0.7-0.2
				c0.3-0.1,0.6-0.2,0.9-0.4c0.3-0.1,0.6-0.3,0.8-0.4c0.2-0.1,0.4-0.3,0.4-0.6l5.7-14.3c0.5-1.3,1.4-2.5,2.5-3.6
				c1.2-1.1,2.5-1.7,4-1.7h33.9c1.3,0,2.6,0.5,3.8,1.6c1.2,1,2,2.2,2.5,3.3l5.6,14.3c0.2,0.7,0.6,1.1,1.2,1.3
				c0.6,0.2,1.2,0.4,1.7,0.7c1.1,0.6,1.9,1.6,2.6,2.8c0.7,1.2,1.1,2.4,1.1,3.6v19.8h-5.3l-0.4,0.4v7.3c0,0.6-0.2,1.2-0.5,1.7
				c-0.4,0.5-0.8,1-1.3,1.4c-0.5,0.4-1.1,0.7-1.7,0.9c-0.6,0.2-1.3,0.3-1.8,0.3c-1.2,0-2.4-0.5-3.6-1.4c-1.2-0.9-1.7-2-1.7-3.4v-7.1
				h-38.1c0,1.1,0,2.3,0,3.7c0,1.4-0.1,2.7-0.4,3.8c-0.3,1.2-0.9,2.2-1.7,3c-0.8,0.8-2,1.2-3.5,1.2c-1.2,0-2.2-0.3-3-1
				c-0.8-0.7-1.5-1.5-2.1-2.6c-0.1-0.1-0.1-0.4-0.2-0.7V410.6z M308.4,394.2c0,1.4,0.4,2.6,1.3,3.6c0.9,1,2,1.5,3.5,1.5
				c1.3,0,2.5-0.5,3.5-1.5c1-1,1.4-2.2,1.4-3.6c0-1.4-0.5-2.6-1.4-3.6c-1-1-2.1-1.5-3.5-1.5c-1.5,0-2.7,0.5-3.5,1.6
				C308.8,391.6,308.4,392.8,308.4,394.2z M314.5,383.3h46.2l-4.5-12.2c-0.2-0.5-0.5-1-1-1.6c-0.5-0.6-1.1-0.9-1.8-0.9h-31.7
				c-0.6,0-1.1,0.2-1.6,0.7c-0.5,0.5-0.8,1-0.9,1.4L314.5,383.3z M357,394.2c0,1.4,0.5,2.6,1.4,3.6c1,1,2.1,1.5,3.5,1.5
				s2.6-0.5,3.5-1.6c0.9-1,1.4-2.2,1.4-3.6c0-1.3-0.5-2.5-1.4-3.6c-0.9-1-2.1-1.6-3.5-1.6s-2.6,0.5-3.5,1.5
				C357.5,391.5,357,392.8,357,394.2z"/>
		</g>
		<path fill="#FFFFFF" d="M523,350.2c-0.7-1.3-1.6-2.5-2.6-3.6c-1.1-1.1-2.2-2-3.5-2.7c-1.3-0.7-2.5-1.1-3.7-1.1H473
			c-1.2,0-2.5,0.4-3.7,1.1c-1.3,0.7-2.5,1.6-3.5,2.7c-1,1.1-1.9,2.3-2.6,3.6c-0.7,1.3-1.1,2.5-1.1,3.7V402c0,1.2,0.3,2.4,0.8,3.5
			c0.6,1.2,1.3,2.2,2.2,3.2c0.9,1,1.9,1.8,3,2.5c1,0.7,2.1,1.2,3.1,1.5v5.7c0,2.3,2.7,4.1,5.9,4.1c3.3,0,5.9-1.9,5.9-4.1v-5.3H503
			v5.3c0,2.3,2.7,4.1,5.9,4.1c3.3,0,5.9-1.9,5.9-4.1v-5.6c0.6-0.2,1.3-0.4,1.9-0.8c1.3-0.7,2.5-1.6,3.5-2.6c1.1-1.1,1.9-2.3,2.6-3.6
			c0.7-1.3,1-2.6,1-3.8V354C524,352.8,523.7,351.5,523,350.2z M476.3,397.5c-0.9,1-2.1,1.4-3.6,1.4c-1.5,0-2.8-0.5-3.7-1.4
			c-1-1-1.5-2.2-1.5-3.7c0-1.5,0.5-2.7,1.5-3.6c1-1,2.2-1.4,3.7-1.4c1.4,0,2.6,0.5,3.5,1.4c1,1,1.5,2.2,1.5,3.6
			C477.7,395.3,477.2,396.5,476.3,397.5z M491.3,371.4c0,0.9-0.4,1.9-1.1,2.8c-0.7,1-1.6,1.4-2.6,1.4h-17c-0.2,0-0.4-0.1-0.7-0.2
			c-0.7-0.3-1.4-0.7-2.1-1.4c-0.7-0.7-1-1.5-1-2.2v-12.6c0-0.9,0.5-1.8,1.4-2.6c0.9-0.8,1.8-1.3,2.7-1.3h16.3c1.1,0,2,0.5,2.8,1.4
			c0.8,0.9,1.2,1.9,1.2,3V371.4z M517.3,397.5c-0.9,1-2.2,1.4-3.7,1.4c-1.5,0-2.8-0.5-3.7-1.4c-0.9-1-1.4-2.2-1.4-3.7
			c0-1.5,0.5-2.8,1.4-3.7c1-0.9,2.2-1.4,3.6-1.4c1.5,0,2.8,0.5,3.7,1.4c0.9,1,1.4,2.2,1.4,3.6C518.7,395.3,518.2,396.5,517.3,397.5z
			 M518.9,371.6c0,0.9-0.4,1.8-1.2,2.6c-0.8,0.8-1.7,1.2-2.6,1.2h-17c-0.6-0.2-1-0.3-1.1-0.3c-0.7-0.3-1.3-0.8-1.8-1.5
			c-0.5-0.8-0.8-1.5-0.8-2.2v-11.9c0-1.1,0.4-2,1.2-2.9c0.8-0.9,1.8-1.4,2.8-1.4h16.4c1,0,1.9,0.4,2.8,1.3c0.9,0.9,1.3,1.8,1.3,2.7
			V371.6z"/>
	</g>
</g>
<g id="Calque_2">
	<g>
		<path fill="#FFFFFF" d="M-102.7,124.2l-8.7,8.7l8.7,8.7l-11.6,11.6l41.6,41.6c5.8,5.8,14.6,5.8,20.3,0c5.8-5.8,5.8-14.5,0-20.3
			L-102.7,124.2z M-64.9,190.1c-3.9,0-7.8-2.9-7.8-7.8c0-3.9,2.9-7.8,7.8-7.8c4.9,0,7.8,2.9,7.8,7.8
			C-57.2,187.2-60.1,190.1-64.9,190.1L-64.9,190.1z M-64.9,190.1"/>
		<g>
			<path fill="#FFFFFF" d="M-167.6,122.2l8.8-5.8l14.5-16.5l8.7,8.7l8.7-8.7l-0.9-1c1.9-4.9,2.9-9.7,2.9-15.5
				c0-21.3-17.4-38.7-38.7-38.7c-5.8,0-10.6,0.9-15.5,2.9l28,28.1l-20.3,20.3l-28.1-28c-1.9,4.8-2.9,9.7-2.9,15.5
				C-202.5,103.8-187,119.3-167.6,122.2L-167.6,122.2z M-167.6,122.2"/>
			<path fill="#FFFFFF" d="M-125,149.4l8.8-7.8l-8.8-8.7l55.3-55.3l11.6-3.9l10.6-21.3l-6.8-6.8l-22.3,9.7L-81.4,67l-54.3,55.2
				l-8.7-8.7l-7.8,8.7c0,0,7.8,5.8-1,14.6c-4.8,4.8-12.6-1-27.1,13.5l-20.3,20.3c0,0-5.8,9.7,5.8,21.3c11.6,11.6,21.3,5.8,21.3,5.8
				l20.3-20.3c13.6-13.6,8.8-22.3,12.6-26.2C-131.8,142.6-125,149.4-125,149.4L-125,149.4z M-155,145.5l6.8,6.8l-36.8,36.9l-6.8-6.8
				L-155,145.5z M-155,145.5"/>
		</g>
	</g>
	<g>
		<path fill="#FFFFFF" d="M99.9,47L86.7,65.5v5.6h36.1V47H99.9z M117.9,66.3H92l10.3-14.4h15.6V66.3z M117.9,66.3"/>
		<path fill="#FFFFFF" d="M125.2,47v24.1h36.1v-5.6L148,47H125.2z M130,66.3V51.8h15.6l10.3,14.4H130z M130,66.3"/>
		<rect x="115.5" y="73.5" fill="#FFFFFF" width="7.2" height="4.8"/>
		<path fill="#FFFFFF" d="M79.4,112c4,0,7.2-3.2,7.2-7.2c0-4-3.2-7.2-7.2-7.2c-4,0-7.2,3.2-7.2,7.2C72.2,108.8,75.5,112,79.4,112
			L79.4,112z M79.4,102.4c1.3,0,2.4,1.1,2.4,2.4c0,1.3-1.1,2.4-2.4,2.4c-1.3,0-2.4-1.1-2.4-2.4C77,103.5,78.1,102.4,79.4,102.4
			L79.4,102.4z M79.4,102.4"/>
		<path fill="#FFFFFF" d="M187.7,107.2c6,0,7.2-3.9,7.2-7.2V78.3c0-6-4.9-11.3-9-12l-9.6-2.4c-2.4-0.6-3.8-1.6-5.9-3.9l-12.1-16.9
			c-3.1-4-6.7-5.7-11.5-5.7h-45.7c-4.9,0-8.4,1.8-11.6,5.8L77.6,59.9c-2.2,2.5-3.8,3.6-5.8,4l-14.5,2.4c-6.9,1.4-11.5,7.2-11.5,14.4
			v16.8c0,5.2,4.4,9.6,9.6,9.6h7.4c0.5,3.7,2.3,7.1,4.9,9.6H45.8v19.2h42.9l23.5,7.2l-23.8,7.3l0.1,4.6l22.6,6.1l-22.3,6h-43v19.2
			h149.2v-19.2h-43l-22.3-6l22.6-6.1l0.1-4.6l-23.8-7.3l23.5-7.2h42.9v-19.2H173c2.6-2.5,4.3-5.9,4.9-9.6H187.7z M67.4,104.8
			c0-6.6,5.4-12,12-12c6.6,0,12,5.4,12,12c0,6.6-5.4,12-12,12C72.8,116.8,67.4,111.4,67.4,104.8L67.4,104.8z M96.1,107.2h48.5
			c0.5,3.7,2.3,7.1,4.9,9.6H91.2C93.8,114.3,95.5,110.9,96.1,107.2L96.1,107.2z M190.1,172.2v9.6H50.6v-9.6H190.1z M133.4,167.3
			h-26.2l13.1-3.5L133.4,167.3z M142.9,152.7l-22.6,6.1l-22.6-6.1l22.6-7L142.9,152.7z M120.3,140.8l-15.3-4.7h30.6L120.3,140.8z
			 M190.1,121.6v9.6H50.6v-9.6H190.1z M161.2,116.8c-6.6,0-12-5.4-12-12c0-6.6,5.4-12,12-12c6.6,0,12,5.4,12,12
			C173.3,111.4,167.9,116.8,161.2,116.8L161.2,116.8z M161.2,87.9c-8.5,0-15.5,6.3-16.6,14.4H96.1c-1.2-8.1-8.2-14.4-16.7-14.4
			c-8.5,0-15.5,6.3-16.6,14.4h-7.4c-2.6,0-4.8-2.2-4.8-4.8v-12h4.8v4.8h4.8v-4.8c0-3.1-1.7-4.8-4.8-4.8h-4.8c0-6,4-8.9,7.6-9.7
			l14.5-2.4c3.1-0.6,5.7-2.3,8.7-5.8l12-16.8c2.2-2.8,4.3-3.9,7.7-3.9h45.7c3.4,0,5.5,1.1,7.7,3.8l12.2,17c2.4,2.7,4.6,4.6,8.5,5.6
			l9.8,2.4c2.1,0.4,5.2,3.6,5.2,7.3V100c0,2.1-0.3,2.4-2.4,2.4h-9.8C176.7,94.2,169.7,87.9,161.2,87.9L161.2,87.9z M161.2,87.9"/>
		<path fill="#FFFFFF" d="M161.2,97.6c-4,0-7.2,3.2-7.2,7.2c0,4,3.2,7.2,7.2,7.2c4,0,7.2-3.2,7.2-7.2
			C168.5,100.8,165.2,97.6,161.2,97.6L161.2,97.6z M161.2,107.2c-1.3,0-2.4-1.1-2.4-2.4c0-1.3,1.1-2.4,2.4-2.4
			c1.3,0,2.4,1.1,2.4,2.4C163.7,106.1,162.6,107.2,161.2,107.2L161.2,107.2z M161.2,107.2"/>
		<rect x="65" y="140.9" fill="#FFFFFF" width="4.8" height="12"/>
		<rect x="55.4" y="145.7" fill="#FFFFFF" width="4.8" height="16.8"/>
		<rect x="178.1" y="140.9" fill="#FFFFFF" width="4.8" height="9.6"/>
		<rect x="168.5" y="140.9" fill="#FFFFFF" width="4.8" height="21.7"/>
		<rect x="134.8" y="92.8" fill="#FFFFFF" width="4.8" height="4.8"/>
		<rect x="125.2" y="92.8" fill="#FFFFFF" width="4.8" height="4.8"/>
		<rect x="180.5" y="92.8" fill="#FFFFFF" width="4.8" height="4.8"/>
		<rect x="55.4" y="174.6" fill="#FFFFFF" width="4.8" height="4.8"/>
		<rect x="65" y="174.6" fill="#FFFFFF" width="4.8" height="4.8"/>
	</g>
</g>
</svg>
