<?xml version="1.0" encoding="utf-8"?>
<!-- Generator: Adobe Illustrator 18.0.0, SVG Export Plug-In . SVG Version: 6.00 Build 0)  -->
<!DOCTYPE svg PUBLIC "-//W3C//DTD SVG 1.1//EN" "http://www.w3.org/Graphics/SVG/1.1/DTD/svg11.dtd">
<svg version="1.1" xmlns="http://www.w3.org/2000/svg" xmlns:xlink="http://www.w3.org/1999/xlink" x="0px" y="0px"
	 viewBox="0 0 318 223" enable-background="new 0 0 318 223" xml:space="preserve">
<g id="Calque_1">
	<g>
		<g>
			<path fill="#FFFFFF" d="M385.5,410.7h-6.5V371l3.8-28.5c0.2-1.6,0.7-3,1.5-4.2c0.8-1.2,1.8-2.3,3-3.2c1.2-0.9,2.5-1.6,4-2.2
				c1.5-0.6,2.9-1,4.4-1.5c3.6-0.9,7.2-1.7,10.8-2.3c3.6-0.6,7.3-0.9,11.1-0.9c1.1,0,2.3,0,3.5,0.1c1.2,0.1,2.3,0.2,3.3,0.3
				c0.3,0,0.9,0.1,1.8,0.2c0.9,0.1,1.8,0.3,2.8,0.4c1,0.2,1.9,0.3,2.8,0.5c0.9,0.2,1.5,0.3,1.9,0.3c0.1,0,0.5,0.1,1,0.2
				c0.5,0.1,1.1,0.3,1.8,0.4c0.6,0.2,1.3,0.3,1.9,0.4c0.6,0.1,1.1,0.2,1.5,0.3c1.1,0.3,2.3,0.8,3.7,1.3c1.3,0.5,2.6,1.2,3.8,2
				c1.2,0.8,2.2,1.7,3.1,2.8c0.9,1.1,1.4,2.3,1.6,3.7l3.7,28.1v41.2h-6.2v7c0,1.5-0.6,2.6-1.7,3.5c-1.2,0.9-2.4,1.4-3.7,1.4
				c-1.1,0-2-0.2-2.9-0.5c-0.9-0.4-1.6-1.1-2.2-2.1c-0.1-0.1-0.2-0.5-0.5-1.1v-8.1h-42.2v7.8c0,0.1-0.1,0.4-0.4,0.9
				c-0.3,0.5-0.5,0.9-0.7,1.1c-0.5,0.8-1.1,1.3-1.9,1.6c-0.8,0.3-1.7,0.4-2.6,0.4c-2.5,0-4.3-1.2-5.2-3.6c-0.1-0.1-0.1-0.3-0.1-0.6
				c0-0.2-0.1-0.4-0.1-0.4V410.7z M385.7,370.9c0,0.9,0.2,1.6,0.8,2.2c0.5,0.6,1.2,0.9,2.1,0.9h57.9c0.9,0,1.6-0.3,2.1-0.9
				c0.5-0.6,0.7-1.4,0.7-2.2v-0.7l-3.1-21.5c-0.1-0.8-0.5-1.6-1-2.4c-0.6-0.8-1.4-1.2-2.3-1.2h-50.9c-0.9,0-1.7,0.4-2.2,1.1
				c-0.6,0.8-0.9,1.5-1,2.3l-3.1,21.6V370.9z M385.7,392.9c0,1.5,0.5,2.7,1.5,3.7c1,1,2.3,1.5,3.6,1.5c1.5,0,2.7-0.5,3.8-1.4
				c1.1-1,1.6-2.2,1.6-3.7c0-1.6-0.5-2.9-1.6-3.8c-1.1-0.9-2.4-1.4-3.8-1.4c-1.4,0-2.6,0.5-3.6,1.4
				C386.2,390.2,385.7,391.4,385.7,392.9z M399.4,337.7c0,0.6,0.2,1.2,0.5,1.7c0.4,0.5,0.9,0.8,1.5,0.8h32.3c0.5,0,1-0.3,1.4-0.8
				c0.4-0.5,0.6-1.1,0.6-1.6c0-0.3-0.1-0.8-0.4-1.3c-0.2-0.5-0.6-0.8-1-0.8h-33.6c-0.5,0-0.8,0.2-1,0.7
				C399.5,337,399.4,337.4,399.4,337.7z M438.8,392.9c0,1.5,0.5,2.8,1.5,3.7c1,1,2.3,1.4,3.7,1.4c1.5,0,2.7-0.5,3.8-1.4
				c1.1-1,1.6-2.2,1.6-3.7c0-1.5-0.5-2.8-1.5-3.7c-1-1-2.3-1.4-3.8-1.4c-1.5,0-2.7,0.5-3.7,1.4C439.3,390.2,438.8,391.4,438.8,392.9
				z"/>
		</g>
		<g>
			<path fill="#FFFFFF" d="M307.7,410.6h-5.4v-20.9c0-1,0.4-2,1.1-3c0.8-1,1.5-1.8,2.3-2.2c0.2-0.1,0.4-0.1,0.7-0.2
				c0.3-0.1,0.6-0.2,0.9-0.4c0.3-0.1,0.6-0.3,0.8-0.4c0.2-0.1,0.4-0.3,0.4-0.6l5.7-14.3c0.5-1.3,1.4-2.5,2.5-3.6
				c1.2-1.1,2.5-1.7,4-1.7h33.9c1.3,0,2.6,0.5,3.8,1.6c1.2,1,2,2.2,2.5,3.3l5.6,14.3c0.2,0.7,0.6,1.1,1.2,1.3
				c0.6,0.2,1.2,0.4,1.7,0.7c1.1,0.6,1.9,1.6,2.6,2.8c0.7,1.2,1.1,2.4,1.1,3.6v19.8h-5.3l-0.4,0.4v7.3c0,0.6-0.2,1.2-0.5,1.7
				c-0.4,0.5-0.8,1-1.3,1.4c-0.5,0.4-1.1,0.7-1.7,0.9c-0.6,0.2-1.3,0.3-1.8,0.3c-1.2,0-2.4-0.5-3.6-1.4c-1.2-0.9-1.7-2-1.7-3.4v-7.1
				h-38.1c0,1.1,0,2.3,0,3.7c0,1.4-0.1,2.7-0.4,3.8c-0.3,1.2-0.9,2.2-1.7,3c-0.8,0.8-2,1.2-3.5,1.2c-1.2,0-2.2-0.3-3-1
				c-0.8-0.7-1.5-1.5-2.1-2.6c-0.1-0.1-0.1-0.4-0.2-0.7V410.6z M308.4,394.2c0,1.4,0.4,2.6,1.3,3.6c0.9,1,2,1.5,3.5,1.5
				c1.3,0,2.5-0.5,3.5-1.5c1-1,1.4-2.2,1.4-3.6c0-1.4-0.5-2.6-1.4-3.6c-1-1-2.1-1.5-3.5-1.5c-1.5,0-2.7,0.5-3.5,1.6
				C308.8,391.6,308.4,392.8,308.4,394.2z M314.5,383.3h46.2l-4.5-12.2c-0.2-0.5-0.5-1-1-1.6c-0.5-0.6-1.1-0.9-1.8-0.9h-31.7
				c-0.6,0-1.1,0.2-1.6,0.7c-0.5,0.5-0.8,1-0.9,1.4L314.5,383.3z M357,394.2c0,1.4,0.5,2.6,1.4,3.6c1,1,2.1,1.5,3.5,1.5
				s2.6-0.5,3.5-1.6c0.9-1,1.4-2.2,1.4-3.6c0-1.3-0.5-2.5-1.4-3.6c-0.9-1-2.1-1.6-3.5-1.6s-2.6,0.5-3.5,1.5
				C357.5,391.5,357,392.8,357,394.2z"/>
		</g>
		<path fill="#FFFFFF" d="M523,350.2c-0.7-1.3-1.6-2.5-2.6-3.6c-1.1-1.1-2.2-2-3.5-2.7c-1.3-0.7-2.5-1.1-3.7-1.1H473
			c-1.2,0-2.5,0.4-3.7,1.1c-1.3,0.7-2.5,1.6-3.5,2.7c-1,1.1-1.9,2.3-2.6,3.6c-0.7,1.3-1.1,2.5-1.1,3.7V402c0,1.2,0.3,2.4,0.8,3.5
			c0.6,1.2,1.3,2.2,2.2,3.2c0.9,1,1.9,1.8,3,2.5c1,0.7,2.1,1.2,3.1,1.5v5.7c0,2.3,2.7,4.1,5.9,4.1c3.3,0,5.9-1.9,5.9-4.1v-5.3H503
			v5.3c0,2.3,2.7,4.1,5.9,4.1c3.3,0,5.9-1.9,5.9-4.1v-5.6c0.6-0.2,1.3-0.4,1.9-0.8c1.3-0.7,2.5-1.6,3.5-2.6c1.1-1.1,1.9-2.3,2.6-3.6
			c0.7-1.3,1-2.6,1-3.8V354C524,352.8,523.7,351.5,523,350.2z M476.3,397.5c-0.9,1-2.1,1.4-3.6,1.4c-1.5,0-2.8-0.5-3.7-1.4
			c-1-1-1.5-2.2-1.5-3.7c0-1.5,0.5-2.7,1.5-3.6c1-1,2.2-1.4,3.7-1.4c1.4,0,2.6,0.5,3.5,1.4c1,1,1.5,2.2,1.5,3.6
			C477.7,395.3,477.2,396.5,476.3,397.5z M491.3,371.4c0,0.9-0.4,1.9-1.1,2.8c-0.7,1-1.6,1.4-2.6,1.4h-17c-0.2,0-0.4-0.1-0.7-0.2
			c-0.7-0.3-1.4-0.7-2.1-1.4c-0.7-0.7-1-1.5-1-2.2v-12.6c0-0.9,0.5-1.8,1.4-2.6c0.9-0.8,1.8-1.3,2.7-1.3h16.3c1.1,0,2,0.5,2.8,1.4
			c0.8,0.9,1.2,1.9,1.2,3V371.4z M517.3,397.5c-0.9,1-2.2,1.4-3.7,1.4c-1.5,0-2.8-0.5-3.7-1.4c-0.9-1-1.4-2.2-1.4-3.7
			c0-1.5,0.5-2.8,1.4-3.7c1-0.9,2.2-1.4,3.6-1.4c1.5,0,2.8,0.5,3.7,1.4c0.9,1,1.4,2.2,1.4,3.6C518.7,395.3,518.2,396.5,517.3,397.5z
			 M518.9,371.6c0,0.9-0.4,1.8-1.2,2.6c-0.8,0.8-1.7,1.2-2.6,1.2h-17c-0.6-0.2-1-0.3-1.1-0.3c-0.7-0.3-1.3-0.8-1.8-1.5
			c-0.5-0.8-0.8-1.5-0.8-2.2v-11.9c0-1.1,0.4-2,1.2-2.9c0.8-0.9,1.8-1.4,2.8-1.4h16.4c1,0,1.9,0.4,2.8,1.3c0.9,0.9,1.3,1.8,1.3,2.7
			V371.6z"/>
	</g>
</g>
<g id="Calque_2">
	<g>
		<path fill="#FFFFFF" d="M-193.1,105.7l-8.7,8.7l8.7,8.7l-11.6,11.6l41.6,41.6c5.8,5.8,14.6,5.8,20.3,0c5.8-5.8,5.8-14.5,0-20.3
			L-193.1,105.7z M-155.4,171.6c-3.9,0-7.8-2.9-7.8-7.8c0-3.9,2.9-7.8,7.8-7.8c4.9,0,7.8,2.9,7.8,7.8
			C-147.6,168.7-150.5,171.6-155.4,171.6L-155.4,171.6z M-155.4,171.6"/>
		<g>
			<path fill="#FFFFFF" d="M-258.1,103.7l8.8-5.8l14.5-16.5l8.7,8.7l8.7-8.7l-0.9-1c1.9-4.9,2.9-9.7,2.9-15.5
				c0-21.3-17.4-38.7-38.7-38.7c-5.8,0-10.6,0.9-15.5,2.9l28,28.1l-20.3,20.3l-28.1-28c-1.9,4.8-2.9,9.7-2.9,15.5
				C-292.9,85.3-277.4,100.8-258.1,103.7L-258.1,103.7z M-258.1,103.7"/>
			<path fill="#FFFFFF" d="M-215.4,130.9l8.8-7.8l-8.8-8.7l55.3-55.3l11.6-3.9l10.6-21.3l-6.8-6.8l-22.3,9.7l-4.8,11.6l-54.3,55.2
				l-8.7-8.7l-7.8,8.7c0,0,7.8,5.8-1,14.6c-4.8,4.8-12.6-1-27.1,13.5l-20.3,20.3c0,0-5.8,9.7,5.8,21.3c11.6,11.6,21.3,5.8,21.3,5.8
				l20.3-20.3c13.6-13.6,8.8-22.3,12.6-26.2C-222.2,124.1-215.4,130.9-215.4,130.9L-215.4,130.9z M-245.4,127l6.8,6.8l-36.8,36.9
				l-6.8-6.8L-245.4,127z M-245.4,127"/>
		</g>
	</g>
	<g>
		<path fill="#FFFFFF" d="M-323,201.4l-13.2,18.5v5.6h36.1v-24.1H-323z M-304.9,220.6h-25.9l10.3-14.4h15.6V220.6z M-304.9,220.6"/>
		<path fill="#FFFFFF" d="M-297.7,201.4v24.1h36.1v-5.6l-13.2-18.5H-297.7z M-292.9,220.6v-14.4h15.6l10.3,14.4H-292.9z
			 M-292.9,220.6"/>
		<rect x="-307.4" y="227.8" fill="#FFFFFF" width="7.2" height="4.8"/>
		<path fill="#FFFFFF" d="M-343.4,266.3c4,0,7.2-3.2,7.2-7.2c0-4-3.2-7.2-7.2-7.2s-7.2,3.2-7.2,7.2
			C-350.7,263.1-347.4,266.3-343.4,266.3L-343.4,266.3z M-343.4,256.7c1.3,0,2.4,1.1,2.4,2.4c0,1.3-1.1,2.4-2.4,2.4
			c-1.3,0-2.4-1.1-2.4-2.4C-345.9,257.8-344.8,256.7-343.4,256.7L-343.4,256.7z M-343.4,256.7"/>
		<path fill="#FFFFFF" d="M-235.2,261.5c6,0,7.2-3.9,7.2-7.2v-21.7c0-6-4.9-11.3-9-12l-9.6-2.4c-2.4-0.6-3.8-1.6-5.9-3.9l-12.1-16.9
			c-3.1-4-6.7-5.7-11.5-5.7h-45.7c-4.9,0-8.4,1.8-11.6,5.8l-11.9,16.7c-2.2,2.5-3.8,3.6-5.8,4l-14.5,2.4
			c-6.9,1.4-11.5,7.2-11.5,14.4v16.8c0,5.2,4.4,9.6,9.6,9.6h7.4c0.5,3.7,2.3,7.1,4.9,9.6h-21.9v19.2h42.9l23.5,7.2l-23.8,7.3
			l0.1,4.6l22.6,6.1l-22.3,6h-43v19.2H-228v-19.2h-43l-22.3-6l22.6-6.1l0.1-4.6l-23.8-7.3l23.5-7.2h42.9v-19.2h-21.9
			c2.6-2.5,4.3-5.9,4.9-9.6H-235.2z M-355.5,259.1c0-6.6,5.4-12,12-12c6.6,0,12,5.4,12,12c0,6.6-5.4,12-12,12
			C-350.1,271.1-355.5,265.7-355.5,259.1L-355.5,259.1z M-326.8,261.5h48.5c0.5,3.7,2.3,7.1,4.9,9.6h-58.3
			C-329.1,268.6-327.3,265.3-326.8,261.5L-326.8,261.5z M-232.8,326.5v9.6h-139.6v-9.6H-232.8z M-289.5,321.7h-26.2l13.1-3.5
			L-289.5,321.7z M-279.9,307.1l-22.6,6.1l-22.6-6.1l22.6-7L-279.9,307.1z M-302.5,295.1l-15.3-4.7h30.6L-302.5,295.1z
			 M-232.8,275.9v9.6h-139.6v-9.6H-232.8z M-261.6,271.1c-6.6,0-12-5.4-12-12c0-6.6,5.4-12,12-12c6.6,0,12,5.4,12,12
			C-249.6,265.7-255,271.1-261.6,271.1L-261.6,271.1z M-261.6,242.3c-8.5,0-15.5,6.3-16.6,14.4h-48.5c-1.2-8.1-8.2-14.4-16.7-14.4
			c-8.5,0-15.5,6.3-16.6,14.4h-7.4c-2.6,0-4.8-2.2-4.8-4.8v-12h4.8v4.8h4.8v-4.8c0-3.1-1.7-4.8-4.8-4.8h-4.8c0-6,4-8.9,7.6-9.7
			l14.5-2.4c3.1-0.6,5.7-2.3,8.7-5.8l12-16.8c2.2-2.8,4.3-3.9,7.7-3.9h45.7c3.4,0,5.5,1.1,7.7,3.8l12.2,17c2.4,2.7,4.6,4.6,8.5,5.6
			l9.8,2.4c2.1,0.4,5.2,3.6,5.2,7.3v21.7c0,2.1-0.3,2.4-2.4,2.4h-9.8C-246.2,248.5-253.2,242.3-261.6,242.3L-261.6,242.3z
			 M-261.6,242.3"/>
		<path fill="#FFFFFF" d="M-261.6,251.9c-4,0-7.2,3.2-7.2,7.2c0,4,3.2,7.2,7.2,7.2c4,0,7.2-3.2,7.2-7.2
			C-254.4,255.1-257.7,251.9-261.6,251.9L-261.6,251.9z M-261.6,261.5c-1.3,0-2.4-1.1-2.4-2.4c0-1.3,1.1-2.4,2.4-2.4
			c1.3,0,2.4,1.1,2.4,2.4C-259.2,260.4-260.3,261.5-261.6,261.5L-261.6,261.5z M-261.6,261.5"/>
		<rect x="-357.9" y="295.2" fill="#FFFFFF" width="4.8" height="12"/>
		<rect x="-367.5" y="300" fill="#FFFFFF" width="4.8" height="16.8"/>
		<rect x="-244.8" y="295.2" fill="#FFFFFF" width="4.8" height="9.6"/>
		<rect x="-254.4" y="295.2" fill="#FFFFFF" width="4.8" height="21.7"/>
		<rect x="-288.1" y="247.1" fill="#FFFFFF" width="4.8" height="4.8"/>
		<rect x="-297.7" y="247.1" fill="#FFFFFF" width="4.8" height="4.8"/>
		<rect x="-242.4" y="247.1" fill="#FFFFFF" width="4.8" height="4.8"/>
		<rect x="-367.5" y="328.9" fill="#FFFFFF" width="4.8" height="4.8"/>
		<rect x="-357.9" y="328.9" fill="#FFFFFF" width="4.8" height="4.8"/>
	</g>
	<g>
		<path fill="#FFFFFF" d="M-112.3,342.9c-1.4,0-2.5,1.1-2.5,2.5c0,1.4,1.1,2.5,2.5,2.5h13.6c1.4,0,2.5-1.1,2.5-2.5
			c0-1.4-1.1-2.5-2.5-2.5H-112.3z"/>
		<path fill="#FFFFFF" d="M-138.6,371c0,1.4-1.1,2.5-2.5,2.5h-7.6c-1.4,0-2.5-1.1-2.5-2.5s1.1-2.5,2.5-2.5h7.6
			C-139.8,368.4-138.6,369.6-138.6,371L-138.6,371z M-148.8,363.3c-1.4,0-2.5-1.1-2.5-2.5c0-1.4,1.1-2.5,2.5-2.5h12.7
			c1.4,0,2.5,1.1,2.5,2.5c0,1.4-1.1,2.5-2.5,2.5H-148.8z M-91,345.5c0,4.2-3.4,7.6-7.6,7.6h-13.6c-4.2,0-7.6-3.4-7.6-7.6
			c0-4.2,3.4-7.6,7.6-7.6h13.6C-94.5,337.8-91,341.3-91,345.5L-91,345.5z M-46.9,388.8V399c0,1.4-1.1,2.5-2.5,2.5H-52H-159h-2.5
			c-1.4,0-2.5-1.1-2.5-2.5v-10.2c0-1.4,1.1-2.5,2.5-2.5h7.6h96.9h7.6C-48,386.3-46.9,387.4-46.9,388.8L-46.9,388.8z M-98.7,427.1
			h-13.6c-4.2,0-7.6-3.4-7.6-7.6s3.4-7.6,7.6-7.6h13.6c4.2,0,7.6,3.4,7.6,7.6S-94.5,427.1-98.7,427.1L-98.7,427.1z M-136.1,437.3
			h-12.7c-1.4,0-2.5-1.1-2.5-2.5s1.1-2.5,2.5-2.5h12.7c1.4,0,2.5,1.1,2.5,2.5S-134.7,437.3-136.1,437.3L-136.1,437.3z M-141.2,447.5
			h-7.6c-1.4,0-2.5-1.1-2.5-2.5s1.1-2.5,2.5-2.5h7.6c1.4,0,2.5,1.1,2.5,2.5S-139.8,447.5-141.2,447.5L-141.2,447.5z M-164.1,325.1
			v-10.2c0-1.4,1.1-2.5,2.5-2.5h112.2c1.4,0,2.5,1.1,2.5,2.5v10.2c0,1.4-1.1,2.5-2.5,2.5H-52H-159h-2.5
			C-163,327.6-164.1,326.5-164.1,325.1L-164.1,325.1z M-49.4,332.7c4.2,0,7.6-3.4,7.6-7.6v-10.2c0-4.2-3.4-7.6-7.6-7.6h-112.2
			c-4.2,0-7.6,3.4-7.6,7.6v10.2c0,4.2,3.4,7.6,7.6,7.6v45.9c0,0.9,0.2,1.7,0.5,2.5h-0.5c-4.2,0-7.6,3.4-7.6,7.6V399
			c0,4.2,3.4,7.6,7.6,7.6v45.9c0,4.2,3.4,7.6,7.6,7.6h96.9c4.2,0,7.6-3.4,7.6-7.6v-45.9c4.2,0,7.6-3.4,7.6-7.6v-10.2
			c0-4.2-3.4-7.6-7.6-7.6h-0.5c0.3-0.8,0.5-1.7,0.5-2.5V332.7z"/>
		<path fill="#FFFFFF" d="M-98.7,416.9h-13.6c-1.4,0-2.5,1.1-2.5,2.5c0,1.4,1.1,2.5,2.5,2.5h13.6c1.4,0,2.5-1.1,2.5-2.5
			C-96.1,418-97.3,416.9-98.7,416.9"/>
	</g>
	<g>
		<g>
			<path fill="#FFFFFF" d="M-182.4-149.2c0.5,2.4,1.3,4,2.3,5c2.2,15.6,16.3,28.9,27.5,28.4c14.3-0.7,24.5-16.2,26.8-28.4
				c0.9-1,1.9-3.1,2.4-5.5c0.6-2.8,1.3-7-0.4-9.3c-0.1-0.1-0.7-0.7-0.9-0.8c1.6-5.8,5.2-16.2-3.7-25.5c-4.8-5.1-11.4-7.6-17.4-9.6
				c-17.7-5.9-30.2,2.4-36,16.2c-0.4,1-3.1,7.2,0.2,18.9c-0.3,0.2-0.6,0.5-0.9,0.8C-184.1-156.8-183-152-182.4-149.2L-182.4-149.2z
				 M-182.4-149.2"/>
			<path fill="#FFFFFF" d="M-90.8-63.2C-91.3-74-92-91.1-101.4-105c0,0-2.7-3.6-9-6.1c0,0-13.8-4.2-20.2-8.8l-2.9,2l0.3,18.9
				l-17.4,46.5c-0.4,1-1.4,1.7-2.5,1.7c-1.1,0-2.1-0.7-2.4-1.7L-172.8-99c0,0,0.3-18.8,0.3-18.9c0,0.1-2.9-2-2.9-2
				c-6.3,4.6-20.2,8.8-20.2,8.8c-6.4,2.4-9,6.1-9,6.1c-9.4,13.9-10,31-10.5,41.8c-0.3,7.4,1.2,10.2,3.2,11
				c24.3,9.8,93.6,9.8,117.9,0C-92.1-53-90.5-55.8-90.8-63.2L-90.8-63.2z M-90.8-63.2"/>
		</g>
		<path fill="#FFFFFF" d="M-152.4-109.8h-0.8c-2.6,0-5.1-0.5-7.6-1.3l6.9,10.6l-6.2,6l6.4,38.7c0.1,0.3,0.3,0.6,0.7,0.6
			c0.3,0,0.6-0.2,0.7-0.6l6.4-38.7l-6.2-6l6.8-10.4C-147.5-110.4-149.9-109.9-152.4-109.8L-152.4-109.8z M-152.4-109.8"/>
	</g>
	<g>
		<path fill="#FFFFFF" d="M376.5,104.1h-11.2V60.9c0-2.1,0.8-4.1,2.3-6.3c1.6-2.1,3.1-3.6,4.7-4.6c0.4-0.1,0.8-0.3,1.4-0.4
			c0.6-0.2,1.2-0.4,1.8-0.7c0.6-0.3,1.2-0.6,1.6-0.9c0.5-0.3,0.7-0.7,0.7-1.2l11.7-29.7c1.1-2.6,2.8-5.1,5.2-7.5
			c2.4-2.4,5.2-3.5,8.3-3.5h70.2c2.8,0,5.4,1.1,7.9,3.3c2.5,2.2,4.2,4.5,5.1,6.9L498,45.9c0.5,1.5,1.3,2.4,2.5,2.7
			c1.2,0.4,2.4,0.8,3.6,1.4c2.2,1.3,4,3.2,5.4,5.7c1.5,2.5,2.2,5,2.2,7.5v40.9h-11L500,105v15c0,1.3-0.4,2.5-1.1,3.6
			c-0.7,1.1-1.6,2-2.7,2.8c-1.1,0.8-2.3,1.4-3.6,1.8c-1.3,0.4-2.6,0.6-3.8,0.6c-2.5,0-5-0.9-7.4-2.8c-2.4-1.9-3.6-4.2-3.6-7v-14.7
			h-78.9c0,2.3,0,4.9,0.1,7.7c0.1,2.8-0.2,5.5-0.9,8c-0.7,2.5-1.8,4.6-3.4,6.2c-1.6,1.7-4.1,2.5-7.3,2.5c-2.4,0-4.5-0.7-6.2-2.1
			c-1.8-1.4-3.2-3.2-4.2-5.3c-0.1-0.2-0.3-0.7-0.4-1.5V104.1z M377.9,70.1c0,2.9,0.9,5.4,2.7,7.5c1.8,2.1,4.2,3.2,7.3,3.2
			c2.8,0,5.2-1,7.1-3.2c2-2.1,3-4.6,3-7.5c0-2.9-1-5.4-3-7.5c-2-2.1-4.4-3.2-7.1-3.2c-3.1,0-5.6,1.1-7.3,3.3
			C378.8,64.9,377.9,67.4,377.9,70.1z M390.6,47.7h95.5l-9.4-25.3c-0.4-1-1-2.1-2-3.3c-1-1.3-2.2-1.9-3.6-1.9h-65.6
			c-1.2,0-2.3,0.5-3.3,1.5c-1,1-1.7,2-1.9,3L390.6,47.7z M478.5,70.1c0,2.9,1,5.4,3,7.5c2,2.1,4.4,3.2,7.3,3.2s5.3-1.1,7.2-3.3
			c1.9-2.2,2.9-4.6,2.9-7.4c0-2.8-1-5.3-2.9-7.4c-1.9-2.2-4.3-3.3-7.2-3.3s-5.3,1-7.3,3.2C479.4,64.7,478.5,67.2,478.5,70.1z"/>
	</g>
	<path fill="#FFFFFF" d="M472.8,286.7l0.6-0.9L484,285l-2.8-39.3c-0.2-2.4-1-4.8-2.6-7.1c-1.6-2.3-3.4-4-5.6-5.1
		c-1.2-0.5-2.4-0.9-3.5-1.1c-1.2-0.3-2.1-1.1-2.6-2.4l-13.2-27.7c-1.1-2.3-2.9-4.4-5.4-6.3c-2.5-1.9-5.1-2.8-7.8-2.6l-67.4,4.9
		c-3,0.2-5.6,1.5-7.7,4c-2.1,2.4-3.6,5-4.5,7.6l-9.2,29.3c0,0.5-0.2,0.9-0.6,1.2c-0.4,0.3-0.9,0.7-1.5,1c-0.6,0.3-1.1,0.6-1.7,0.8
		c-0.6,0.2-1,0.4-1.4,0.5c-1.4,1-2.8,2.6-4.2,4.8c-1.4,2.2-1.9,4.2-1.8,6.2l3,41.5l10.8-0.8l1.1,15.3c0.1,0.5,0.2,0.9,0.3,1.1h19.7
		c0.3-0.8,0.5-1.7,0.7-2.5c0.5-2.4,0.6-5,0.3-7.7c-0.2-2.7-0.4-5.2-0.6-7.4l75.8-5.5l1,14.1c0.2,2.7,1.5,4.8,4,6.4
		c2.4,1.6,4.9,2.4,7.3,2.2c1.1-0.1,2.4-0.4,3.6-0.9c1.2-0.5,2.4-1.2,3.3-2c1-0.8,1.8-1.8,2.4-2.9c0.6-1.1,0.9-2.3,0.8-3.5
		L472.8,286.7z M370,267.7c-1.7,2.2-4,3.3-6.6,3.5c-2.9,0.2-5.3-0.6-7.2-2.5c-1.9-1.9-2.9-4.2-3.1-7c-0.2-2.7,0.5-5.1,2-7.3
		c1.5-2.2,3.8-3.4,6.8-3.6c2.7-0.2,5,0.6,7.1,2.5c2.1,1.9,3.2,4.2,3.4,7C372.5,263,371.7,265.5,370,267.7z M363.6,239.2l7.4-25.7
		c0.2-0.9,0.7-1.9,1.6-3c0.9-1.1,2-1.6,3.1-1.7l63.1-4.6c1.4-0.1,2.6,0.4,3.6,1.6c1,1.1,1.7,2.2,2.2,3.1l10.8,23.7L363.6,239.2z
		 M467,260.5c-1.7,2.2-3.9,3.4-6.7,3.6c-2.8,0.2-5.2-0.6-7.3-2.5c-2.1-1.9-3.2-4.2-3.4-7c-0.2-2.8,0.6-5.3,2.4-7.4
		c1.8-2.2,4-3.3,6.8-3.6c2.8-0.2,5.2,0.7,7.2,2.6c2,1.9,3.1,4.3,3.3,6.9C469.5,255.9,468.7,258.3,467,260.5z"/>
	<path fill="#FFFFFF" d="M300.7,297.7l29.7,12.1l-31.8-4.2c-2.4-0.3-3.3-1.5-3-3l1.2-4.3c0-0.9,0.6-1.2,1.2-1.5
		C298.9,296.5,299.8,296.8,300.7,297.7L300.7,297.7z"/>
	<path fill="#FFFFFF" d="M335.8,298.1l-12.4-29.7c-0.9-1.5-1.8-2.4-2.7-2.4c-0.3,0-0.6,0-0.9,0.3l-3.6,2.5c-1.5,0.9-1.2,2.4,0.3,4
		L335.8,298.1z"/>
	<path fill="#FFFFFF" d="M304.3,272.3c-0.6,0-1.2,0.3-1.8,0.9l-3.6,3.6c-1.5,1.5-0.9,3.3,1.5,5.2l31.5,24.3l-24.3-31.5
		C306.5,273.2,305.5,272.3,304.3,272.3L304.3,272.3z"/>
	<path fill="#FFFFFF" d="M304.3,272.3"/>
	<g>
		<path fill="#FFFFFF" d="M184.9-136.7c0,0,0-0.1,0-0.1c-1.6-6.2-7.2-10.5-13.6-10.5h-13.7v-7.8h19.7c2.2,0,4-1.8,4-4v-12.6
			c0-2.2-1.8-4-4-4h-47.5c-2.2,0-4,1.8-4,4v12.6c0,2.2,1.8,4,4,4h19.7v7.8H88.5c-6.4,0-12,4.3-13.6,10.5c0,0,0,0.1,0,0.1L61.3-77.6
			c0.4,0,0.8-0.1,1.1-0.1h135c0.4,0,0.8,0,1.1,0.1L184.9-136.7z M172.5-118.3c0,2.2-1.8,4-4,4H91.3c-2.2,0-4-1.8-4-4v-9.3
			c0-2.2,1.8-4,4-4h77.2c2.2,0,4,1.8,4,4V-118.3z M197.4-69.6h-135c-3,0-5.4,2.4-5.4,5.4v21.5c0,3,2.4,5.4,5.4,5.4h135
			c3,0,5.4-2.4,5.4-5.4v-21.5C202.8-67.2,200.4-69.6,197.4-69.6L197.4-69.6z M142.1-52.8c0,4.1-3.3,7.4-7.4,7.4h-9.1
			c-4.1,0-7.4-3.3-7.4-7.4v-1.3c0-4.1,3.3-7.4,7.4-7.4h9.1c4.1,0,7.4,3.3,7.4,7.4V-52.8z M142.1-52.8"/>
	</g>
	<g>
		<path fill="#FFFFFF" d="M547.9-172.9v14h22.8C570.6-159,562.5-166.3,547.9-172.9z"/>
		<path fill="#FFFFFF" d="M591.4-102.3c0.2,1,0.3,1.9,0.3,3c0,0.8-0.1,1.7-0.3,2.5h7.4v-5.4H591.4z"/>
		<path fill="#FFFFFF" d="M572.4-111.9c-8,0-14.6,6.5-14.6,14.6c0,8,6.5,14.6,14.6,14.6c8.1,0,14.6-6.5,14.6-14.6
			C587-105.4,580.5-111.9,572.4-111.9z M572.4-90.9c-3.5,0-6.4-2.9-6.4-6.4c0-3.5,2.9-6.4,6.4-6.4c3.6,0,6.4,2.9,6.4,6.4
			C578.8-93.8,576-90.9,572.4-90.9z"/>
		<path fill="#FFFFFF" d="M501.3-111.9c-8,0-14.6,6.5-14.6,14.6c0,8,6.5,14.6,14.6,14.6c8.1,0,14.6-6.5,14.6-14.6
			C515.9-105.4,509.4-111.9,501.3-111.9z M501.3-90.9c-3.5,0-6.4-2.9-6.4-6.4c0-3.5,2.9-6.4,6.4-6.4c3.6,0,6.4,2.9,6.4,6.4
			C507.7-93.8,504.9-90.9,501.3-90.9z"/>
		<path fill="#FFFFFF" d="M375.3-109.6c-7.5,0-13.6,6.1-13.6,13.6c0,7.5,6.1,13.6,13.6,13.6c7.5,0,13.6-6.1,13.6-13.6
			C388.9-103.5,382.8-109.6,375.3-109.6z M375.3-90c-3.3,0-6-2.7-6-6c0-3.3,2.7-6,6-6c3.3,0,6,2.7,6,6C381.3-92.7,378.6-90,375.3-90
			z"/>
		<path fill="#FFFFFF" d="M407.1-109.6c-7.5,0-13.6,6.1-13.6,13.6c0,7.5,6.1,13.6,13.6,13.6c7.5,0,13.6-6.1,13.6-13.6
			C420.6-103.5,414.5-109.6,407.1-109.6z M407.1-90c-3.3,0-6-2.7-6-6c0-3.3,2.7-6,6-6c3.3,0,6,2.7,6,6C413-92.7,410.3-90,407.1-90z"
			/>
		<path fill="#FFFFFF" d="M439.2-109.6c-7.5,0-13.6,6.1-13.6,13.6c0,7.5,6.1,13.6,13.6,13.6c7.5,0,13.6-6.1,13.6-13.6
			C452.8-103.5,446.7-109.6,439.2-109.6z M439.2-90c-3.3,0-6-2.7-6-6c0-3.3,2.7-6,6-6c3.3,0,6,2.7,6,6C445.2-92.7,442.5-90,439.2-90
			z"/>
		<path fill="#FFFFFF" d="M343.1-98v4h15.2c-0.1-0.5-0.1-1-0.1-1.5c0-0.8,0.1-1.7,0.2-2.5H343.1z"/>
		<path fill="#FFFFFF" d="M498.5-113.6h-17.2v16.8h3.5c0-0.2,0-0.3,0-0.5C484.8-105.5,490.7-112.3,498.5-113.6z"/>
		<path fill="#FFFFFF" d="M543.3-172.5H340.2v56.6h4.4v16.7h14c1.7-7.6,8.5-13.4,16.6-13.4c7.3,0,13.4,4.5,15.9,10.9
			c2.5-6.4,8.7-10.9,15.9-10.9c7.5,0,13.8,4.8,16.1,11.5c2.3-6.7,8.6-11.5,16.1-11.5c8.1,0,14.9,5.7,16.6,13.4l1.8,0v-14.5v-1.2
			v-3.2h85.8V-172.5z M350.5-107.4h-2.1v-8.4h2.1V-107.4z"/>
		<g>
			<path fill="#FFFFFF" d="M531-96.9v-16.8h-26.9c7.8,1.3,13.8,8.1,13.8,16.3c0,0.2,0,0.3,0,0.5H531z"/>
		</g>
		<path fill="#FFFFFF" d="M587.1-156h-38.3v42.3h-19.4v16.8h18.8h0.8h4.8c-0.1-0.8-0.2-1.6-0.2-2.5c0-1,0.1-2,0.3-3h-4.9v-1.5h6
			c2-7.9,9.1-13.7,17.6-13.7c8.5,0,15.6,5.8,17.6,13.7h8.3v-27.6L587.1-156z M578.7-129.9l-10.9-9.2H553V-152h32.2l8.1,22.1H578.7z"
			/>
	</g>
	<g>
		<path fill="#FFFFFF" d="M175.6,329.7v14.4H199C199,344.1,190.7,336.5,175.6,329.7z"/>
		<path fill="#FFFFFF" d="M220.4,402.4c0.2,1,0.3,2,0.3,3c0,0.9-0.1,1.7-0.3,2.5h7.6v-5.6H220.4z"/>
		<path fill="#FFFFFF" d="M227.5,372.5L216,347.2h-39.4v43.6H95.2c8,1.4,14.2,8.4,14.2,16.8c0,0.2,0,0.3,0,0.5h66.5h0.8h5
			c-0.1-0.8-0.2-1.7-0.2-2.5c0-1,0.1-2.1,0.3-3h-5.1v-1.6h6.2c2.1-8.1,9.4-14.1,18.1-14.1c8.8,0,16.1,6,18.1,14.1h8.5V372.5z
			 M207.3,374l-11.3-9.5h-15.2v-13.3H214l8.4,22.8H207.3z"/>
		<path fill="#FFFFFF" d="M200.8,392.5c-8.3,0-15,6.7-15,15c0,8.3,6.7,15,15,15c8.3,0,15-6.7,15-15
			C215.9,399.3,209.1,392.5,200.8,392.5z M200.8,414.1c-3.6,0-6.6-3-6.6-6.6c0-3.6,3-6.6,6.6-6.6c3.7,0,6.6,3,6.6,6.6
			C207.4,411.2,204.5,414.1,200.8,414.1z"/>
		<path fill="#FFFFFF" d="M92.3,392.5c-8.3,0-15,6.7-15,15c0,8.3,6.7,15,15,15c8.3,0,15-6.7,15-15
			C107.3,399.3,100.6,392.5,92.3,392.5z M92.3,414.1c-3.6,0-6.6-3-6.6-6.6c0-3.6,3-6.6,6.6-6.6c3.7,0,6.6,3,6.6,6.6
			C98.9,411.2,95.9,414.1,92.3,414.1z"/>
		<path fill="#FFFFFF" d="M89.4,390.7H53.5V408h21.8c0-0.2,0-0.3,0-0.5C75.2,399.1,81.3,392.1,89.4,390.7z"/>
		<polygon fill="#FFFFFF" points="163.4,369.3 137.2,387.1 135.6,391.3 166.8,391.3 173.5,387.7 		"/>
		<path fill="#FFFFFF" d="M66.8,399.4c-4.2,0-7.7-1.7-7.7-3.8v-36.2c0-2.1,3.4-3.8,7.7-3.8c4.2,0,7.7,1.7,7.7,3.8v36.2
			C74.4,397.7,71,399.4,66.8,399.4z"/>
		<g>
			<path fill="#FFFFFF" d="M114.9,317.5L92,380c13.7,7.5,27.2,14.2,32.5,16.8l26.1-71.2C144.8,324.2,130.3,320.6,114.9,317.5z"/>
			<path fill="#FFFFFF" d="M162.9,339.1c-1.7-3.9-3.8-6.9-5.4-8.9l-24.8,67.6c2.6-0.5,6.1-1.4,9.9-3.3c6.8-3.3,16-10,21.1-23.7
				C168.7,357.1,166,346,162.9,339.1z"/>
			<path fill="#FFFFFF" d="M106.9,315.8c-12.7-2.5-25.1-4.4-32.8-4.4c-2.7,0-8.9,0-10.5,4.4l-11.8,32.3c-1.7,4.6,3.2,9.1,11.6,14.9
				c5.3,3.6,12.5,8,21.4,13L106.9,315.8z"/>
		</g>
	</g>
	<path fill="#FFFFFF" d="M168.6,469c-4.7,0-8.5,3.8-8.5,8.5s3.8,8.5,8.5,8.5s8.5-3.8,8.5-8.5S173.3,469,168.6,469z M168.6,481.7
		c-2.3,0-4.2-1.9-4.2-4.2s1.9-4.2,4.2-4.2s4.2,1.9,4.2,4.2S171,481.7,168.6,481.7z"/>
	<path fill="#FFFFFF" d="M61.1,469c-4.7,0-8.5,3.8-8.5,8.5s3.8,8.5,8.5,8.5s8.5-3.8,8.5-8.5S65.7,469,61.1,469z M61.1,481.7
		c-2.3,0-4.2-1.9-4.2-4.2s1.9-4.2,4.2-4.2s4.2,1.9,4.2,4.2S63.4,481.7,61.1,481.7z"/>
	<path fill="#FFFFFF" d="M40.4,469c-4.7,0-8.5,3.8-8.5,8.5s3.8,8.5,8.5,8.5s8.5-3.8,8.5-8.5S45,469,40.4,469z M40.4,481.7
		c-2.3,0-4.2-1.9-4.2-4.2s1.9-4.2,4.2-4.2s4.2,1.9,4.2,4.2S42.7,481.7,40.4,481.7z"/>
	<path fill="#FFFFFF" d="M193.8,473.5c-0.2-0.2-0.6-0.4-0.7-0.4c-0.1,0-0.2-0.1-0.3-1.2c-0.1-0.7-0.1-1.6-0.1-2.5l0-1
		c0-1.9,0-3.9,0-4.5c0-0.6-0.2-2.1-0.4-3.4c-0.2-1.3-0.5-3.8-0.8-5.7l0-0.1c-0.3-1.9-1-4.9-1.6-6.7l-0.3-1c-0.6-1.8-1.7-4.4-2.4-5.9
		c-0.7-1.4-1.5-2.9-1.8-3.2c-0.3-0.3-1.2-0.8-1.9-1c-0.8-0.2-2.5-0.4-3.9-0.5c-1.4-0.1-4.1-0.1-6.1-0.1l-62.9-0.2c-2,0-5.2,0-7.2,0
		l-65-0.1c-2,0-5.2-0.1-7.2-0.2L19.1,435c-2-0.1-5.2-0.3-7.2-0.4l-1-0.1c-0.3,0-0.6,0-0.9,0c-1.8,0-2.7,0.3-2.8,0.5
		c-0.1,0.4-0.4,2.2-0.6,3.8c-0.2,1.7-0.5,4.6-0.6,6.5L6,446.2c-0.1,1.9-0.2,5-0.1,6.9l0.1,3c0,1.9,0.1,5,0,6.9l0,0.9
		c0,1.9-0.1,4.7-0.1,6.2v2.8c0,0,0,0.2-0.7,0.6c-0.3,0.2-0.5,0.4-0.6,0.4v0.9c0,0.4,0,0.7,0,0.8l0.4,0.5c0.2,0.2,0.6,0.6,0.8,0.7
		c0.3,0.2,0.6,0.7,0.8,1.2c0.2,0.4,0.4,0.7,0.4,0.8l20.2,0.2c0.9,0,1.8,0,2.7,0c-0.1-0.5-0.1-1-0.1-1.6c0-5.8,4.7-10.5,10.5-10.5
		c4.1,0,7.7,2.4,9.4,5.9c0.2,0,0.6,0,0.9,0c0.3,0,0.7,0,0.9,0c1.7-3.5,5.3-5.9,9.4-5.9c5.8,0,10.5,4.7,10.5,10.5c0,0.3,0,0.5,0,0.8
		l10.9-0.1c1.9,0,5.2,0,7.2,0l45.5-0.1c2,0,5.2,0,7.2,0h15.6c0-0.2,0-0.4,0-0.5c0-5.8,4.7-10.5,10.5-10.5c5.8,0,10.5,4.7,10.5,10.5
		c0,0.2,0,0.4,0,0.5h4.2c2,0,4.6-0.1,5.9-0.1c1.2-0.1,2.6-0.5,3-0.9c0.5-0.4,1.1-1.4,1.4-2.1C193.9,474.2,193.9,473.6,193.8,473.5z
		 M14.8,447.9c0,0.6-0.5,1-1.1,1H11c-0.6,0-1.1-0.5-1.1-1v-8.9c0-0.6,0.5-1,1.1-1h2.7c0.6,0,1.1,0.5,1.1,1V447.9z M39.7,450.2
		c0,1.1-1,2.1-2.2,2.1H19.2c-1.2,0-2.2-0.9-2.2-2.1V440c0-1.1,1-2.1,2.2-2.1h18.3c1.2,0,2.2,0.9,2.2,2.1V450.2z M64.8,450.2
		c0,1.1-1,2.1-2.2,2.1H44.3c-1.2,0-2.2-0.9-2.2-2.1V440c0-1.1,1-2.1,2.2-2.1h18.3c1.2,0,2.2,0.9,2.2,2.1V450.2z M89.8,450.2
		c0,1.1-1,2.1-2.2,2.1H69.3c-1.2,0-2.2-0.9-2.2-2.1V440c0-1.1,1-2.1,2.2-2.1h18.3c1.2,0,2.2,0.9,2.2,2.1V450.2z M114.9,450.2
		c0,1.1-1,2.1-2.2,2.1H94.4c-1.2,0-2.2-0.9-2.2-2.1V440c0-1.1,1-2.1,2.2-2.1h18.3c1.2,0,2.2,0.9,2.2,2.1V450.2z M139.9,450.2
		c0,1.1-1,2.1-2.2,2.1h-18.3c-1.2,0-2.2-0.9-2.2-2.1V440c0-1.1,1-2.1,2.2-2.1h18.3c1.2,0,2.2,0.9,2.2,2.1V450.2z M165,450.2
		c0,1.1-1,2.1-2.2,2.1h-18.3c-1.2,0-2.2-0.9-2.2-2.1V440c0-1.1,1-2.1,2.2-2.1h18.3c1.2,0,2.2,0.9,2.2,2.1V450.2z M177.8,450.2
		c0,1.1-1,2.1-2.2,2.1H169c-1.2,0-2.2-0.9-2.2-2.1V440c0-1.1,1-2.1,2.2-2.1h6.6c1.2,0,2.2,0.9,2.2,2.1V450.2z M180.2,448.6l0-0.9
		c0-0.6,0-1.5,0-2.1l0-5.6c0-0.6,0-1.2,0-1.5c0-0.3,0.4-0.4,0.9-0.4c0.5,0,1.2,0.2,1.7,0.3c0.5,0.2,1.2,0.5,1.6,0.8
		c0.4,0.3,0.9,0.9,1.1,1.3c0.2,0.5,0.6,1.3,0.7,1.8l0.1,0.3c0.2,0.5,0.4,1.4,0.6,2l1.1,4c0.1,0.6-0.2,1-0.8,1l-5.8,0
		C180.7,449.6,180.2,449.2,180.2,448.6z M187.9,462H182c-0.6,0-1.1-0.5-1.1-1l0-7.4c0-0.6,0.5-1,1.1-1l4.5,0c0.6,0,1.2,0.5,1.2,1
		l1.1,7.4C188.9,461.6,188.5,462,187.9,462z"/>
	<path fill="#FFFFFF" d="M257.2,96.2l-0.2,2.1c0,0.5,0,1.2-0.2,1.7l-0.3,3.5c0,0.5,0,1.2-0.2,1.7v0.5c0,0.5-0.3,0.9-0.5,1.2
		c-0.3,0.2-0.8,0.3-1.1,0.3s-0.6-0.5-0.6-0.9c0,0,0-4.3,0-4.4s-0.6-7.1-0.6-7.1c0-0.5,0.3-0.9,0.8-0.9l0,0c0.5-0.2,0.8-0.3,0.8-0.5
		c0-0.2-0.3-0.5-0.8-0.5l-7.7-2.4c-0.5-0.2-1.2-0.3-1.7-0.2h-3.2c-0.5,0-0.8-0.3-0.8-0.8l0.3-2.1c0-0.5,0.5-0.8,0.9-0.8l3.6,0.2
		c0.5,0,1.2,0.2,1.7,0.5l7.4,3.3c0.5,0.2,0.8,0.8,0.9,1.2l0,0c0,0.5,0.2,1.1,0.2,1.5c0.2,0.3,0.2,0.9,0.3,1.2c0,0.3,0.3,0.6,0.5,0.8
		C257,95.2,257.2,95.7,257.2,96.2z"/>
	<path fill="#FFFFFF" d="M214.3,129.9c-7.1,0-12.9,5.8-12.9,12.9c0,7.1,5.8,12.9,12.9,12.9s12.9-5.8,12.9-12.9
		C227.2,135.7,221.4,129.9,214.3,129.9z M214.3,149.2c-3.5,0-6.4-2.9-6.4-6.4s2.9-6.4,6.4-6.4s6.4,2.9,6.4,6.4
		C220.8,146.3,217.9,149.2,214.3,149.2z"/>
	<path fill="#FFFFFF" d="M88.9,129.9c-7.1,0-12.9,5.8-12.9,12.9c0,7.1,5.8,12.9,12.9,12.9c7.1,0,12.9-5.8,12.9-12.9
		C101.9,135.7,96.1,129.9,88.9,129.9z M88.9,149.2c-3.5,0-6.4-2.9-6.4-6.4s2.9-6.4,6.4-6.4c3.5,0,6.4,2.9,6.4,6.4
		C95.3,146.3,92.4,149.2,88.9,149.2z"/>
	<path fill="#FFFFFF" d="M57.5,129.9c-7.1,0-12.9,5.8-12.9,12.9c0,7.1,5.8,12.9,12.9,12.9s12.9-5.8,12.9-12.9
		C70.3,135.7,64.6,129.9,57.5,129.9z M57.5,149.2c-3.5,0-6.4-2.9-6.4-6.4s2.9-6.4,6.4-6.4c3.5,0,6.4,2.9,6.4,6.4
		C63.9,146.3,61,149.2,57.5,149.2z"/>
	<g>
		<path fill="#FFFFFF" d="M252.6,136.6c-0.3-0.3-0.9-0.6-1.1-0.6c-0.2,0-0.3-0.2-0.5-1.8c-0.2-1.1-0.2-2.4-0.2-3.8v-1.5
			c0-2.9,0-5.9,0-6.8s-0.3-3.2-0.6-5.2c-0.3-2-0.8-5.8-1.2-8.7V108c-0.5-2.9-1.5-7.4-2.4-10.2l-0.5-1.5c-0.9-2.7-2.6-6.7-3.6-9
			c-1.1-2.1-2.3-4.4-2.7-4.9c-0.5-0.5-1.8-1.2-2.9-1.5c-1.2-0.3-3.8-0.6-5.9-0.8c-2.1-0.2-6.2-0.2-9.3-0.2l-88.4-0.3v63.9l29.8-0.1
			c3,0,7.9,0,10.9,0h23.7c0-0.3,0-0.6,0-0.8c0-8.8,7.1-16,16-16c8.8,0,16,7.1,16,16c0,0.3,0,0.6,0,0.8h6.4c3,0,7-0.2,9-0.2
			c1.8-0.2,4-0.8,4.6-1.4c0.8-0.6,1.7-2.1,2.1-3.2C252.7,137.8,252.7,136.7,252.6,136.6z M170.8,101.2h-0.2c0,1.7-1.5,3.2-3.3,3.2
			h-27.8c-1.8,0-3.3-1.4-3.3-3.2V85.7c0-1.7,1.5-3.2,3.3-3.2h28c1.8,0,3.3,1.4,3.3,3.2V101.2z M208.8,101.2c0,1.7-1.5,3.2-3.3,3.2
			h-27.8c-1.8,0-3.3-1.4-3.3-3.2V85.7c0-1.7,1.5-3.2,3.3-3.2h27.8c1.8,0,3.3,1.4,3.3,3.2V101.2z M228.4,101.2c0,1.7-1.5,3.2-3.3,3.2
			h-10c-1.8,0-3.3-1.4-3.3-3.2V85.7c0-1.7,1.5-3.2,3.3-3.2h10c1.8,0,3.3,1.4,3.3,3.2V101.2z M231.9,98.9v-1.4c0-0.9,0-2.3,0-3.2
			v-8.5c0-0.9,0-1.8,0-2.3s0.6-0.6,1.4-0.6s1.8,0.3,2.6,0.5c0.8,0.3,1.8,0.8,2.4,1.2c0.6,0.5,1.4,1.4,1.7,2c0.3,0.8,0.9,2,1.1,2.7
			l0.2,0.5c0.3,0.8,0.6,2.1,0.9,3l1.7,6.1c0.2,0.9-0.3,1.5-1.2,1.5h-8.8C232.8,100.4,232.1,99.6,231.9,98.9z M243.6,119.3h-8.8
			c-0.9,0-1.7-0.8-1.7-1.5v-11.2c0-0.9,0.8-1.5,1.7-1.5h6.8c0.9,0,1.8,0.8,1.8,1.5l1.7,11.2C245.1,118.5,244.5,119.3,243.6,119.3z"
			/>
	</g>
	<path fill="#FFFFFF" d="M134.7,79.7l-80.2-0.1c-3,0-7.9-0.2-10.9-0.3l-18.4-1.1c-3-0.2-7.9-0.5-10.9-0.6l-1.5-0.2
		c-0.5,0-0.9,0-1.4,0c-2.7,0-4.1,0.5-4.3,0.8c-0.2,0.6-0.6,3.3-0.9,5.8c-0.3,2.6-0.8,7-0.9,9.9l-0.2,1.4c-0.2,2.9-0.3,7.6-0.2,10.5
		l0.2,4.6c0,2.9,0.2,7.6,0,10.5v1.4c0,2.9-0.2,7.1-0.2,9.4v4.3c0,0,0,0.3-1.1,0.9c-0.5,0.3-0.8,0.6-0.9,0.6v1.4c0,0.6,0,1.1,0,1.2
		l0.6,0.8c0.3,0.3,0.9,0.9,1.2,1.1c0.5,0.3,0.9,1.1,1.2,1.8c0.3,0.6,0.6,1.1,0.6,1.2l30.7,0.3c1.4,0,2.7,0,4.1,0
		c-0.2-0.8-0.2-1.5-0.2-2.4c0-8.8,7.1-16,16-16c6.2,0,11.7,3.6,14.3,9c0.3,0,0.9,0,1.4,0s1.1,0,1.4,0c2.6-5.3,8.1-9,14.3-9
		c8.8,0,16,7.1,16,16c0,0.5,0,0.8,0,1.2l16.6-0.2c2.9,0,7.9,0,10.9,0l2.7,0V79.7z M18.6,97.8c0,0.9-0.8,1.5-1.7,1.5h-4.1
		c-0.9,0-1.7-0.8-1.7-1.5V84.3c0-0.9,0.8-1.5,1.7-1.5h4.1c0.9,0,1.7,0.8,1.7,1.5V97.8z M56.4,101.2c0,1.7-1.5,3.2-3.3,3.2H25.3
		c-1.8,0-3.3-1.4-3.3-3.2V85.7c0-1.7,1.5-3.2,3.3-3.2h27.8c1.8,0,3.3,1.4,3.3,3.2V101.2z M94.6,101.2c0,1.7-1.5,3.2-3.3,3.2H63.4
		c-1.8,0-3.3-1.4-3.3-3.2V85.7c0-1.7,1.5-3.2,3.3-3.2h27.8c1.8,0,3.3,1.4,3.3,3.2V101.2z M129.2,104.4h-27.8c-1.8,0-3.3-1.4-3.3-3.2
		V85.7c0-1.7,1.5-3.2,3.3-3.2h27.8c1.8,0,3.3,1.4,3.3,3.2v15.5C132.6,102.8,131,104.4,129.2,104.4z"/>
</g>
</svg>
