<?xml version="1.0" encoding="utf-8"?>
<!-- Generator: Adobe Illustrator 21.0.0, SVG Export Plug-In . SVG Version: 6.00 Build 0)  -->
<svg version="1.1" xmlns="http://www.w3.org/2000/svg" xmlns:xlink="http://www.w3.org/1999/xlink" x="0px" y="0px"
	 viewBox="0 0 108 120" style="enable-background:new 0 0 108 120;" xml:space="preserve">
<style type="text/css">
	.st0{display:none;}
	.st1{display:inline;}
	.st2{fill:#0994E7;}
</style>
<g id="Calque_1" class="st0">
	<g class="st1">
		<path class="st2" d="M16.6,27.1v77.2h87.9V27.1H16.6z M102.7,102.5H18.4V45h84.3V102.5z M102.7,43.2H18.4V28.9h84.3V43.2z"/>
		<path class="st2" d="M61.5,16.3h25.1V9.1H61.5V16.3z M63.3,10.9h21.5v3.6H63.3V10.9z"/>
		<path class="st2" d="M31,16.3h7.2V9.1H31V16.3z M32.7,10.9h3.6v3.6h-3.6V10.9z"/>
		<path class="st2" d="M20.2,16.3h7.2V9.1h-7.2V16.3z M22,10.9h3.6v3.6H22V10.9z"/>
		<path class="st2" d="M9.4,16.3h7.2V9.1H9.4V16.3z M11.2,10.9h3.6v3.6h-3.6V10.9z"/>
		<path class="st2" d="M99.1,32.5H74v7.2h25.1V32.5z M97.4,37.8H75.8v-3.6h21.5V37.8z"/>
		<path class="st2" d="M50.7,32.5h-7.2v7.2h7.2V32.5z M48.9,37.8h-3.6v-3.6h3.6V37.8z"/>
		<path class="st2" d="M39.9,32.5h-7.2v7.2h7.2V32.5z M38.1,37.8h-3.6v-3.6h3.6V37.8z"/>
		<path class="st2" d="M29.2,32.5H22v7.2h7.2V32.5z M27.4,37.8h-3.6v-3.6h3.6V37.8z"/>
		<path class="st2" d="M28.3,56.6l10.1,14.9c-0.2,0.5-0.3,0.9-0.3,1.4c0,2,1.6,3.6,3.6,3.6c2,0,3.6-1.6,3.6-3.6
			c0-0.3-0.1-0.6-0.2-0.9l7.2-5.1c0.8,0.5,1.8,0.7,2.7,0.5l9.1,15.6c-0.6,0.6-0.9,1.5-0.9,2.3c0,2,1.6,3.6,3.6,3.6
			c2,0,3.6-1.6,3.6-3.6c0-0.8-0.3-1.7-0.8-2.3l6-7.3c1.4,0.9,3.2,0.8,4.4-0.3l11.2,19l-2.9-0.8l1.3,2.2l4.2,1.1l1.1-4.2l-1.3-2.2
			l-0.8,2.9L81.1,73.8c0.1-0.3,0.1-0.6,0.1-1c0-2-1.6-3.6-3.6-3.6c-2,0-3.6,1.6-3.6,3.6c0,0.6,0.1,1.1,0.4,1.6l-6.3,7.6
			c-0.4-0.2-0.8-0.2-1.3-0.3c-0.4,0-0.8,0.1-1.2,0.2l-9-15.5c0.8-0.7,1.2-1.7,1.2-2.7c0-2-1.6-3.6-3.6-3.6c-2,0-3.6,1.6-3.6,3.6
			c0,0.6,0.1,1.2,0.4,1.7l-6.8,4.8C43,69.1,41,69,39.6,70.1l-9.7-14.4c0.9-0.9,1.3-2.2,1-3.5c-0.5-1.9-2.5-3.1-4.4-2.6
			c-1.9,0.5-3.1,2.5-2.6,4.4C24.4,55.9,26.4,57.1,28.3,56.6z M77.6,71.1c1,0,1.8,0.8,1.8,1.8c0,1-0.8,1.8-1.8,1.8
			c-1,0-1.8-0.8-1.8-1.8C75.8,71.9,76.6,71.1,77.6,71.1z M66.8,83.6c1,0,1.8,0.8,1.8,1.8c0,1-0.8,1.8-1.8,1.8S65,86.4,65,85.4
			C65,84.4,65.9,83.6,66.8,83.6z M54.3,62.1c1,0,1.8,0.8,1.8,1.8c0,1-0.8,1.8-1.8,1.8s-1.8-0.8-1.8-1.8
			C52.5,62.9,53.3,62.1,54.3,62.1z M41.7,71.1c1,0,1.8,0.8,1.8,1.8c0,1-0.8,1.8-1.8,1.8s-1.8-0.8-1.8-1.8
			C39.9,71.9,40.7,71.1,41.7,71.1z M27.4,51.3c1,0,1.8,0.8,1.8,1.8s-0.8,1.8-1.8,1.8c-1,0-1.8-0.8-1.8-1.8S26.4,51.3,27.4,51.3z"/>
		<path class="st2" d="M5.8,21.7h84.3v3.6H92V3.8H4v77.2h10.8v-1.8h-9V21.7z M5.8,5.5h84.3v14.4H5.8V5.5z"/>
	</g>
</g>
<g id="Calque_2">
	<g id="favorite">
		<polygon class="st2" points="33.1,73.8 31.4,75.5 30.7,76.2 30.9,77.2 32.6,87.2 23.6,82.5 22.7,82 21.8,82.5 12.8,87.2 
			14.5,77.2 14.7,76.2 13.9,75.5 6.6,68.3 16.7,66.9 17.7,66.7 18.2,65.8 22.7,56.7 27.2,65.8 27.7,66.7 28.6,66.9 34.2,67.7 
			34.5,65.8 28.9,65 22.7,52.4 16.5,65 2.5,67 12.6,76.8 10.2,90.7 22.7,84.2 35.1,90.7 32.8,76.8 		"/>
		<polygon class="st2" points="105.5,67 91.5,65 85.3,52.4 79.1,65 73.1,65.9 73.4,67.7 79.4,66.9 80.3,66.7 80.8,65.8 85.3,56.7 
			89.8,65.8 90.3,66.7 91.3,66.9 101.4,68.3 94.1,75.5 93.4,76.2 93.5,77.2 95.3,87.2 86.2,82.5 85.3,82 84.4,82.5 75.4,87.2 
			77.1,77.2 77.3,76.2 76.6,75.5 74.4,73.3 74.9,76.5 75.2,76.8 72.9,90.7 85.3,84.2 97.8,90.7 95.4,76.8 		"/>
		<path class="st2" d="M83.9,37.8l-20.8-3l-9.3-18.9l-9.3,18.9l-20.8,3l15.1,14.7l-3.6,20.8l18.6-9.8l18.6,9.8l-3.6-20.8L83.9,37.8z
			 M70,69.8l-15.3-8l-0.9-0.5l-0.9,0.5l-15.3,8l2.9-17l0.2-1L40,51.1L27.6,39.1l17.1-2.5l1-0.1l0.4-0.9l7.6-15.5l7.7,15.5l0.4,0.9
			l1,0.1l17.1,2.5L67.6,51.1l-0.7,0.7l0.2,1L70,69.8z"/>
		<rect x="15" y="4.2" transform="matrix(0.7478 -0.6639 0.6639 0.7478 -6.8948 14.7116)" class="st2" width="1.9" height="24.5"/>
		
			<rect x="11.2" y="22.7" transform="matrix(0.3457 -0.9383 0.9383 0.3457 -21.7305 32.0566)" class="st2" width="1.9" height="17.9"/>
		<rect x="31.1" y="2.8" transform="matrix(0.9594 -0.2821 0.2821 0.9594 -2.5313 9.5919)" class="st2" width="1.9" height="21.5"/>
		
			<rect x="79.6" y="15.5" transform="matrix(0.6639 -0.7478 0.7478 0.6639 18.5707 74.1866)" class="st2" width="24.5" height="1.9"/>
		
			<rect x="86.7" y="30.7" transform="matrix(0.9383 -0.3457 0.3457 0.9383 -5.0342 35.0083)" class="st2" width="17.9" height="1.9"/>
		
			<rect x="64.9" y="12.6" transform="matrix(0.2821 -0.9594 0.9594 0.2821 41.3026 82.3758)" class="st2" width="21.5" height="1.9"/>
	</g>
</g>
</svg>
